<svg width="121" height="40" viewBox="0 0 121 40" fill="none" xmlns="http://www.w3.org/2000/svg">
<g clip-path="url(#clip0_0_8353)">
<path d="M110.503 0H9.90296C9.53596 0 9.17296 0 8.80796 0.002C8.50196 0.004 8.19796 0.01 7.88896 0.015C7.21748 0.0223323 6.54754 0.0808351 5.88496 0.19C5.22368 0.302207 4.58313 0.513588 3.98496 0.817C3.38667 1.12335 2.84005 1.52151 2.36496 1.997C1.88821 2.47032 1.49079 3.01732 1.18796 3.617C0.884036 4.21585 0.673277 4.85757 0.562958 5.52C0.451685 6.18171 0.39184 6.85105 0.383958 7.522C0.373958 7.829 0.373958 8.137 0.368958 8.443V31.56C0.373958 31.87 0.374958 32.17 0.383958 32.481C0.392166 33.152 0.452346 33.8213 0.563958 34.483C0.673565 35.1461 0.884001 35.7885 1.18796 36.388C1.49108 36.9854 1.88889 37.5297 2.36596 38C2.83871 38.4771 3.38499 38.8751 3.98396 39.179C4.58248 39.4831 5.22331 39.6954 5.88496 39.809C6.5476 39.9179 7.21748 39.9771 7.88896 39.986C8.19896 39.993 8.50196 39.997 8.80796 39.997C9.17396 39.999 9.53596 39.999 9.90296 39.999H110.503C110.863 39.999 111.227 39.999 111.587 39.997C111.891 39.997 112.204 39.993 112.509 39.987C113.179 39.9782 113.848 39.9187 114.509 39.809C115.173 39.6946 115.816 39.4823 116.417 39.179C117.016 38.875 117.561 38.4769 118.034 38C118.51 37.5273 118.909 36.9827 119.216 36.386C119.518 35.7862 119.727 35.1438 119.835 34.481C119.946 33.8192 120.008 33.15 120.02 32.479C120.024 32.169 120.024 31.869 120.024 31.558C120.032 31.194 120.032 30.833 120.032 30.464V9.536C120.032 9.17 120.032 8.806 120.024 8.444C120.024 8.138 120.024 7.83 120.02 7.524C120.008 6.85266 119.946 6.18314 119.835 5.521C119.726 4.8589 119.517 4.21723 119.215 3.618C118.598 2.41511 117.619 1.43588 116.417 0.818C115.816 0.515273 115.173 0.303946 114.509 0.191C113.848 0.0810377 113.179 0.0221968 112.509 0.015C112.204 0.01 111.891 0.004 111.587 0.002C111.227 0 110.862 0 110.503 0Z" fill="#A6A6A6"/>
<path d="M8.81297 39.125C8.50797 39.125 8.21097 39.121 7.90897 39.115C7.28244 39.1066 6.65739 39.0518 6.03897 38.951C5.46281 38.8516 4.90467 38.6669 4.38297 38.403C3.86585 38.1414 3.39417 37.7984 2.98597 37.387C2.57203 36.9801 2.22748 36.5082 1.96597 35.99C1.70103 35.4687 1.51757 34.9099 1.42197 34.333C1.31926 33.7131 1.26377 33.0863 1.25597 32.458C1.24897 32.248 1.24097 31.545 1.24097 31.545V8.445C1.24097 8.445 1.24997 7.753 1.25597 7.55C1.26342 6.92272 1.31858 6.29691 1.42097 5.678C1.51658 5.09952 1.70003 4.53905 1.96497 4.016C2.22568 3.4983 2.56844 3.0262 2.97997 2.618C3.39092 2.20578 3.86401 1.86058 4.38197 1.595C4.90261 1.33189 5.45983 1.14851 6.03497 1.051C6.65533 0.949562 7.28242 0.894742 7.91097 0.887L8.81297 0.875H111.582L112.495 0.888C113.117 0.895224 113.739 0.949378 114.353 1.05C114.934 1.14872 115.497 1.33341 116.024 1.598C117.062 2.13288 117.906 2.97908 118.439 4.018C118.699 4.53755 118.88 5.0935 118.974 5.667C119.078 6.29093 119.136 6.9216 119.148 7.554C119.151 7.837 119.151 8.142 119.151 8.444C119.159 8.819 119.159 9.176 119.159 9.536V30.465C119.159 30.828 119.159 31.183 119.151 31.54C119.151 31.865 119.151 32.163 119.147 32.47C119.136 33.091 119.079 33.7103 118.977 34.323C118.884 34.9041 118.702 35.4673 118.437 35.993C118.173 36.5056 117.83 36.9733 117.421 37.379C117.012 37.7927 116.54 38.1377 116.021 38.401C115.496 38.6671 114.933 38.8525 114.353 38.951C113.735 39.0519 113.11 39.1064 112.484 39.114C112.191 39.121 111.884 39.125 111.587 39.125L110.503 39.127L8.81297 39.125Z" fill="black"/>
<path d="M25.137 20.3C25.1479 19.4655 25.3696 18.6474 25.7815 17.9217C26.1934 17.1959 26.7821 16.5861 27.493 16.149C27.0414 15.5039 26.4456 14.973 25.753 14.5984C25.0604 14.2238 24.29 14.0158 23.503 13.991C21.823 13.815 20.195 14.996 19.339 14.996C18.467 14.996 17.149 14.008 15.731 14.038C14.8133 14.0676 13.9189 14.3344 13.135 14.8125C12.3511 15.2906 11.7044 15.9636 11.258 16.766C9.32397 20.114 10.767 25.035 12.619 27.742C13.546 29.067 14.629 30.547 16.047 30.495C17.434 30.437 17.952 29.61 19.627 29.61C21.285 29.61 21.771 30.495 23.217 30.462C24.706 30.437 25.643 29.13 26.537 27.792C27.2035 26.8479 27.7165 25.8043 28.057 24.7C27.192 24.3343 26.4538 23.7221 25.9345 22.9396C25.4153 22.1571 25.1379 21.2391 25.137 20.3ZM22.405 12.21C23.2166 11.236 23.6165 9.98407 23.52 8.71997C22.2799 8.85015 21.1345 9.44287 20.312 10.38C19.9099 10.8374 19.602 11.3696 19.4057 11.9462C19.2094 12.5227 19.1286 13.1322 19.168 13.74C19.7881 13.7464 20.4016 13.612 20.9623 13.347C21.523 13.082 22.0163 12.6932 22.405 12.21Z" fill="white"/>
<path d="M42.67 27.14H37.938L36.801 30.496H34.796L39.28 18.078H41.363L45.846 30.496H43.807L42.67 27.14ZM38.427 25.59H42.179L40.329 20.144H40.278L38.427 25.59ZM55.527 25.97C55.527 28.783 54.022 30.59 51.749 30.59C51.1735 30.62 50.6013 30.4874 50.0976 30.2075C49.594 29.9275 49.1793 29.5115 48.901 29.007H48.858V33.491H46.998V21.442H48.798V22.948H48.831C49.122 22.4456 49.5438 22.0315 50.0515 21.7498C50.5591 21.4681 51.1337 21.3292 51.714 21.348C54.012 21.348 55.527 23.164 55.527 25.97ZM53.617 25.97C53.617 24.137 52.67 22.932 51.225 22.932C49.805 22.932 48.85 24.162 48.85 25.97C48.85 27.794 49.805 29.016 51.225 29.016C52.67 29.016 53.617 27.819 53.617 25.97ZM65.493 25.97C65.493 28.783 63.987 30.59 61.714 30.59C61.1385 30.62 60.5663 30.4874 60.0626 30.2075C59.559 29.9275 59.1443 29.5115 58.866 29.007H58.823V33.491H56.964V21.442H58.763V22.948H58.797C59.088 22.4456 59.5098 22.0315 60.0175 21.7498C60.5251 21.4681 61.0997 21.3292 61.68 21.348C63.978 21.348 65.493 23.164 65.493 25.97ZM63.583 25.97C63.583 24.137 62.635 22.932 61.19 22.932C59.77 22.932 58.815 24.162 58.815 25.97C58.815 27.794 59.77 29.016 61.19 29.016C62.635 29.016 63.583 27.819 63.583 25.97ZM72.078 27.036C72.216 28.268 73.412 29.076 75.048 29.076C76.614 29.076 77.741 28.268 77.741 27.157C77.741 26.193 77.061 25.617 75.451 25.221L73.842 24.833C71.562 24.283 70.503 23.216 70.503 21.485C70.503 19.343 72.37 17.871 75.022 17.871C77.646 17.871 79.445 19.343 79.505 21.485H77.629C77.517 20.246 76.493 19.498 74.995 19.498C73.497 19.498 72.474 20.255 72.474 21.356C72.474 22.234 73.128 22.751 74.729 23.146L76.097 23.482C78.645 24.085 79.703 25.108 79.703 26.925C79.703 29.248 77.853 30.703 74.91 30.703C72.156 30.703 70.296 29.283 70.176 27.036H72.078ZM83.714 19.3V21.442H85.436V22.914H83.714V27.905C83.714 28.681 84.059 29.042 84.816 29.042C85.0202 29.0384 85.2242 29.024 85.427 28.999V30.462C85.0868 30.5256 84.741 30.5544 84.395 30.548C82.562 30.548 81.847 29.859 81.847 28.103V22.914H80.531V21.442H81.847V19.3H83.714ZM86.433 25.97C86.433 23.121 88.111 21.331 90.727 21.331C93.352 21.331 95.022 23.121 95.022 25.97C95.022 28.826 93.361 30.608 90.727 30.608C88.094 30.608 86.433 28.826 86.433 25.97ZM93.128 25.97C93.128 24.016 92.233 22.862 90.727 22.862C89.221 22.862 88.327 24.024 88.327 25.97C88.327 27.932 89.221 29.076 90.727 29.076C92.233 29.076 93.128 27.932 93.128 25.97ZM96.554 21.442H98.327V22.983H98.37C98.4901 22.502 98.772 22.077 99.1684 21.7793C99.5648 21.4816 100.052 21.3293 100.547 21.348C100.761 21.3471 100.975 21.3702 101.184 21.417V23.155C100.914 23.0725 100.632 23.0346 100.349 23.043C100.079 23.032 99.8098 23.0796 99.5599 23.1825C99.31 23.2853 99.0854 23.4411 98.9014 23.639C98.7174 23.8368 98.5783 24.0722 98.4939 24.3289C98.4094 24.5856 98.3814 24.8575 98.412 25.126V30.496H96.554V21.442ZM109.752 27.837C109.502 29.48 107.902 30.608 105.854 30.608C103.22 30.608 101.585 28.844 101.585 26.013C101.585 23.173 103.229 21.331 105.775 21.331C108.281 21.331 109.855 23.051 109.855 25.797V26.434H103.461V26.546C103.432 26.8792 103.473 27.2148 103.584 27.5307C103.694 27.8465 103.87 28.1352 104.1 28.3777C104.331 28.6202 104.61 28.8109 104.92 28.9372C105.23 29.0634 105.563 29.1223 105.897 29.11C106.336 29.151 106.776 29.0493 107.153 28.82C107.53 28.5906 107.822 28.2459 107.987 27.837H109.752ZM103.47 25.135H107.996C108.013 24.8354 107.967 24.5356 107.863 24.2544C107.758 23.9732 107.597 23.7167 107.388 23.5009C107.18 23.2851 106.929 23.1148 106.651 23.0005C106.374 22.8863 106.076 22.8306 105.776 22.837C105.473 22.8351 105.173 22.8932 104.893 23.008C104.613 23.1227 104.358 23.2918 104.144 23.5054C103.93 23.7191 103.76 23.9731 103.644 24.2528C103.528 24.5325 103.469 24.8323 103.47 25.135Z" fill="white"/>
<path d="M38.1939 8.73101C38.5836 8.70306 38.9746 8.76192 39.3387 8.90336C39.7029 9.0448 40.0311 9.26528 40.2997 9.54892C40.5683 9.83256 40.7706 10.1723 40.8921 10.5436C41.0135 10.9148 41.051 11.3085 41.0019 11.696C41.0019 13.602 39.9719 14.698 38.1939 14.698H36.0389V8.73001L38.1939 8.73101ZM36.9659 13.854H38.0909C38.3693 13.8705 38.6478 13.8248 38.9062 13.7201C39.1647 13.6154 39.3965 13.4544 39.5849 13.2489C39.7733 13.0434 39.9135 12.7984 39.9953 12.5318C40.0772 12.2653 40.0986 11.9839 40.0579 11.708C40.0957 11.4332 40.0722 11.1535 39.9891 10.8889C39.906 10.6242 39.7655 10.3813 39.5775 10.1773C39.3895 9.97337 39.1588 9.81353 38.9018 9.70923C38.6448 9.60493 38.3679 9.55875 38.0909 9.57401H36.9659V13.854ZM42.0489 12.444C42.0209 12.1483 42.055 11.8499 42.149 11.5681C42.243 11.2863 42.3948 11.0273 42.5947 10.8075C42.7946 10.5878 43.0382 10.4122 43.3099 10.2921C43.5816 10.172 43.8754 10.1099 44.1724 10.1099C44.4695 10.1099 44.7633 10.172 45.035 10.2921C45.3067 10.4122 45.5503 10.5878 45.7502 10.8075C45.9501 11.0273 46.1019 11.2863 46.1959 11.5681C46.2899 11.8499 46.3239 12.1483 46.2959 12.444C46.3255 12.7406 46.2925 13.0401 46.1993 13.3232C46.106 13.6063 45.9544 13.8667 45.7544 14.0877C45.5543 14.3087 45.3102 14.4853 45.0377 14.6061C44.7653 14.727 44.4705 14.7894 44.1724 14.7894C43.8744 14.7894 43.5796 14.727 43.3071 14.6061C43.0347 14.4853 42.7905 14.3087 42.5905 14.0877C42.3904 13.8667 42.2389 13.6063 42.1456 13.3232C42.0523 13.0401 42.0194 12.7406 42.0489 12.444ZM45.3819 12.444C45.3819 11.468 44.9429 10.897 44.1739 10.897C43.4009 10.897 42.9669 11.468 42.9669 12.444C42.9669 13.428 43.4009 13.994 44.1739 13.994C44.9439 13.994 45.3819 13.424 45.3819 12.444ZM51.9419 14.698H51.0189L50.0889 11.381H50.0189L49.0919 14.698H48.1789L46.9369 10.195H47.8389L48.6449 13.631H48.7119L49.6379 10.195H50.4899L51.4159 13.631H51.4859L52.2889 10.195H53.1779L51.9419 14.698ZM54.2219 10.195H55.0769V10.91H55.1429C55.2556 10.6531 55.4457 10.4377 55.6866 10.294C55.9275 10.1502 56.2073 10.0852 56.4869 10.108C56.7061 10.0916 56.9261 10.1246 57.1307 10.2047C57.3353 10.2848 57.5193 10.4099 57.669 10.5708C57.8188 10.7316 57.9304 10.9241 57.9956 11.134C58.0609 11.3438 58.0781 11.5656 58.0459 11.783V14.698H57.1569V12.006C57.1569 11.282 56.8429 10.922 56.1849 10.922C56.0362 10.9151 55.8878 10.9405 55.7497 10.9963C55.6117 11.0522 55.4874 11.1372 55.3853 11.2455C55.2832 11.3539 55.2057 11.4831 55.1582 11.6242C55.1107 11.7653 55.0942 11.915 55.1099 12.063V14.698H54.2219V10.195ZM59.4619 8.43701H60.3499V14.697H59.4619V8.43701ZM61.5859 12.444C61.5579 12.1483 61.592 11.8499 61.686 11.5681C61.78 11.2863 61.9318 11.0273 62.1317 10.8075C62.3316 10.5878 62.5752 10.4122 62.8469 10.2921C63.1186 10.172 63.4124 10.1099 63.7094 10.1099C64.0065 10.1099 64.3003 10.172 64.572 10.2921C64.8437 10.4122 65.0873 10.5878 65.2872 10.8075C65.4871 11.0273 65.6389 11.2863 65.7329 11.5681C65.8269 11.8499 65.8609 12.1483 65.8329 12.444C65.8625 12.7406 65.8295 13.0401 65.7363 13.3232C65.643 13.6063 65.4914 13.8667 65.2914 14.0877C65.0913 14.3087 64.8472 14.4853 64.5747 14.6061C64.3023 14.727 64.0075 14.7894 63.7094 14.7894C63.4114 14.7894 63.1166 14.727 62.8441 14.6061C62.5717 14.4853 62.3275 14.3087 62.1275 14.0877C61.9274 13.8667 61.7759 13.6063 61.6826 13.3232C61.5893 13.0401 61.5564 12.7406 61.5859 12.444ZM64.9189 12.444C64.9189 11.468 64.4799 10.897 63.7109 10.897C62.9379 10.897 62.5039 11.468 62.5039 12.444C62.5039 13.428 62.9379 13.994 63.7109 13.994C64.4809 13.994 64.9189 13.424 64.9189 12.444ZM66.7689 13.424C66.7689 12.614 67.3719 12.146 68.4439 12.08L69.6639 12.01V11.621C69.6639 11.146 69.3489 10.877 68.7419 10.877C68.2449 10.877 67.9019 11.059 67.8029 11.377H66.9429C67.0329 10.604 67.7609 10.107 68.7829 10.107C69.9109 10.107 70.5479 10.67 70.5479 11.621V14.698H69.6929V14.065H69.6229C69.4802 14.2921 69.2797 14.4772 69.042 14.6014C68.8043 14.7256 68.5379 14.7845 68.2699 14.772C68.0809 14.7917 67.8898 14.7716 67.709 14.7129C67.5281 14.6542 67.3617 14.5582 67.2202 14.4312C67.0788 14.3042 66.9656 14.1489 66.8878 13.9754C66.8101 13.802 66.7696 13.6141 66.7689 13.424ZM69.6629 13.04V12.663L68.5629 12.733C67.9429 12.775 67.6629 12.986 67.6629 13.383C67.6629 13.788 68.0139 14.023 68.4969 14.023C68.6385 14.0373 68.7814 14.023 68.9173 13.9809C69.0532 13.9389 69.1793 13.87 69.288 13.7783C69.3968 13.6866 69.486 13.574 69.5504 13.4472C69.6148 13.3204 69.6531 13.1819 69.6629 13.04ZM71.7159 12.444C71.7159 11.021 72.4479 10.12 73.5859 10.12C73.8672 10.1072 74.1463 10.1747 74.3907 10.3146C74.635 10.4545 74.8346 10.661 74.9659 10.91H75.0329V8.43701H75.9209V14.697H75.0699V13.987H74.9999C74.8582 14.2345 74.6514 14.4385 74.4019 14.5769C74.1525 14.7153 73.87 14.7827 73.5849 14.772C72.4399 14.772 71.7159 13.871 71.7159 12.444ZM72.6339 12.444C72.6339 13.399 73.0839 13.974 73.8369 13.974C74.5869 13.974 75.0489 13.391 75.0489 12.448C75.0489 11.51 74.5809 10.918 73.8369 10.918C73.0889 10.918 72.6339 11.498 72.6339 12.444ZM79.5979 12.444C79.5699 12.1483 79.604 11.8499 79.698 11.5681C79.792 11.2863 79.9438 11.0273 80.1437 10.8075C80.3436 10.5878 80.5872 10.4122 80.8589 10.2921C81.1306 10.172 81.4244 10.1099 81.7214 10.1099C82.0185 10.1099 82.3123 10.172 82.584 10.2921C82.8557 10.4122 83.0993 10.5878 83.2992 10.8075C83.4991 11.0273 83.6509 11.2863 83.7449 11.5681C83.8389 11.8499 83.8729 12.1483 83.8449 12.444C83.8745 12.7406 83.8415 13.0401 83.7483 13.3232C83.655 13.6063 83.5034 13.8667 83.3034 14.0877C83.1033 14.3087 82.8592 14.4853 82.5867 14.6061C82.3143 14.727 82.0195 14.7894 81.7214 14.7894C81.4234 14.7894 81.1286 14.727 80.8561 14.6061C80.5837 14.4853 80.3395 14.3087 80.1395 14.0877C79.9394 13.8667 79.7879 13.6063 79.6946 13.3232C79.6013 13.0401 79.5684 12.7406 79.5979 12.444ZM82.9309 12.444C82.9309 11.468 82.4929 10.897 81.7229 10.897C80.9509 10.897 80.5159 11.468 80.5159 12.444C80.5159 13.428 80.9509 13.994 81.7229 13.994C82.4929 13.994 82.9309 13.424 82.9309 12.444ZM85.0369 10.194H85.8929V10.91H85.9589C86.0717 10.6531 86.2617 10.4377 86.5026 10.294C86.7435 10.1502 87.0233 10.0852 87.3029 10.108C87.5221 10.0916 87.7421 10.1246 87.9467 10.2047C88.1513 10.2848 88.3353 10.4099 88.4851 10.5708C88.6348 10.7316 88.7464 10.9241 88.8116 11.134C88.8769 11.3438 88.8941 11.5656 88.8619 11.783V14.698H87.9729V12.006C87.9729 11.282 87.6589 10.922 87.0009 10.922C86.8522 10.9151 86.7038 10.9405 86.5657 10.9963C86.4277 11.0522 86.3034 11.1372 86.2013 11.2455C86.0992 11.3539 86.0217 11.4831 85.9742 11.6242C85.9267 11.7653 85.9102 11.915 85.9259 12.063V14.698H85.0369V10.194ZM93.8829 9.07401V10.215H94.8589V10.964H93.8829V13.279C93.8829 13.751 94.0769 13.958 94.5199 13.958C94.6332 13.9575 94.7464 13.9505 94.8589 13.937V14.677C94.6992 14.7058 94.5373 14.7212 94.3749 14.723C93.3869 14.723 92.9939 14.375 92.9939 13.507V10.964H92.2789V10.215H92.9939V9.07401H93.8829ZM96.0729 8.43701H96.9529V10.918H97.0229C97.1413 10.6587 97.3367 10.4421 97.5826 10.2979C97.8285 10.1537 98.1128 10.0888 98.3969 10.112C98.6149 10.1002 98.8327 10.1366 99.035 10.2187C99.2372 10.3008 99.4189 10.4265 99.5669 10.5869C99.715 10.7473 99.8258 10.9383 99.8915 11.1465C99.9572 11.3546 99.9761 11.5747 99.9469 11.791V14.698H99.0579V12.01C99.0579 11.29 98.7229 10.926 98.0949 10.926C97.9421 10.9135 97.7885 10.9344 97.6446 10.9875C97.5008 11.0406 97.3703 11.1244 97.2623 11.2332C97.1543 11.342 97.0713 11.4731 97.0193 11.6173C96.9672 11.7615 96.9473 11.9153 96.9609 12.068V14.698H96.0729V8.43701ZM105.129 13.482C105.008 13.8934 104.747 14.2493 104.39 14.4874C104.034 14.7256 103.605 14.831 103.179 14.785C102.882 14.7931 102.587 14.7364 102.314 14.6189C102.042 14.5014 101.798 14.3259 101.6 14.1046C101.402 13.8834 101.254 13.6216 101.168 13.3376C101.081 13.0536 101.057 12.7541 101.098 12.46C101.059 12.1652 101.083 11.8653 101.169 11.5808C101.256 11.2962 101.403 11.0335 101.599 10.8105C101.796 10.5875 102.039 10.4094 102.31 10.2882C102.582 10.167 102.876 10.1055 103.174 10.108C104.427 10.108 105.183 10.964 105.183 12.378V12.688H102.003V12.738C101.989 12.9033 102.01 13.0697 102.064 13.2266C102.118 13.3834 102.204 13.5271 102.317 13.6486C102.43 13.7701 102.568 13.8666 102.72 13.9319C102.873 13.9973 103.037 14.03 103.203 14.028C103.415 14.0532 103.63 14.0147 103.821 13.9175C104.011 13.8203 104.169 13.6687 104.273 13.482H105.129ZM102.003 12.031H104.278C104.289 11.8798 104.269 11.7278 104.218 11.585C104.167 11.4421 104.087 11.3115 103.982 11.2016C103.878 11.0917 103.751 11.0048 103.611 10.9467C103.471 10.8885 103.321 10.8604 103.169 10.864C103.015 10.8621 102.863 10.891 102.72 10.949C102.578 11.007 102.449 11.0929 102.34 11.2017C102.231 11.3104 102.145 11.4399 102.088 11.5823C102.03 11.7247 102.001 11.8773 102.003 12.031Z" fill="white"/>
</g>
<defs>
<clipPath id="clip0_0_8353">
<rect width="120" height="40" fill="white" transform="translate(0.199951)"/>
</clipPath>
</defs>
</svg>
