<svg width="136" height="40" viewBox="0 0 136 40" fill="none" xmlns="http://www.w3.org/2000/svg">
<g clip-path="url(#clip0_0_8591)">
<path d="M130.2 39.7964H5.19945C2.44995 39.7964 0.199951 37.5707 0.199951 34.85V5.15361C0.199951 2.43201 2.44995 0.203613 5.19945 0.203613H130.2C132.946 0.203613 135.2 2.43201 135.2 5.15361V34.85C135.2 37.5707 132.95 39.7964 130.2 39.7964Z" fill="black"/>
<path d="M130.2 0.994698C132.513 0.994698 134.398 2.8613 134.398 5.1527V34.85C134.398 37.1387 132.514 39.0053 130.2 39.0053H5.19945C2.88195 39.0053 1.00095 37.1423 1.00095 34.85V5.1536C1.00095 2.8613 2.88555 0.994698 5.19945 0.994698H130.2ZM130.2 0.202698H5.19945C2.44995 0.203598 0.199951 2.432 0.199951 5.1536V34.85C0.199951 37.5707 2.44995 39.8 5.19945 39.8H130.2C132.946 39.8 135.2 37.5707 135.2 34.85V5.1536C135.2 2.432 132.95 0.203598 130.2 0.203598V0.202698Z" fill="#A6A6A6"/>
<path d="M44.669 13.286C43.787 13.286 43.0274 12.98 42.4055 12.3707C41.7863 11.7587 41.4731 10.9964 41.4731 10.1C41.4731 9.2036 41.7863 8.4404 42.4055 7.8356C43.0238 7.2281 43.787 6.9176 44.669 6.9176C45.0947 6.9176 45.5195 7.0031 45.9317 7.175C46.3358 7.3469 46.6589 7.5755 46.8983 7.8608L46.9433 7.9166L46.3106 8.5493L46.2548 8.4827C45.8642 8.0327 45.3476 7.8113 44.669 7.8113C44.3758 7.80801 44.0849 7.86252 43.8128 7.97169C43.5407 8.08087 43.2928 8.24259 43.0832 8.4476C42.6404 8.8697 42.419 9.425 42.419 10.1C42.419 10.7786 42.6404 11.3375 43.0832 11.7596C43.5332 12.1817 44.0678 12.3923 44.669 12.3923C45.3161 12.3923 45.857 12.1781 46.2863 11.756C46.55 11.4923 46.7048 11.144 46.757 10.6868H44.588V9.812H47.6363L47.6507 9.875C47.6822 10.019 47.6993 10.1666 47.6993 10.343C47.6993 11.1827 47.4392 11.8721 46.9334 12.3815C46.3493 12.9791 45.5906 13.2851 44.669 13.2851V13.286ZM52.3055 13.1483H48.6452V7.0553H52.3055V7.9445H49.5767V9.6635H52.0382V10.5392H49.5767V12.2582H52.3055V13.1483ZM55.5572 13.1483H54.6257V7.9445H52.9517V7.0553H57.2339V7.9445H55.5572V13.1483ZM60.9851 13.1483H60.0572V7.0553H60.9851V13.1483ZM64.4051 13.1483H63.4817V7.9445H61.8005V7.0553H66.0863V7.9445H64.406L64.4051 13.1483ZM71.6132 13.2851C70.7168 13.2851 69.9572 12.9755 69.3524 12.3608C68.7512 11.7488 68.4452 10.9892 68.4452 10.1036C68.4452 9.2144 68.7512 8.4512 69.3524 7.8428C69.9572 7.2308 70.7168 6.9185 71.6132 6.9185C72.5024 6.9185 73.2584 7.2308 73.8632 7.85C74.468 8.462 74.7731 9.2207 74.7731 10.1036C74.7731 10.9892 74.4671 11.7524 73.8668 12.3644C73.262 12.9764 72.5024 13.2851 71.6132 13.2851ZM70.0346 11.7524C70.4702 12.1844 70.9832 12.3959 71.6132 12.3959C71.9046 12.4015 72.1941 12.3472 72.4637 12.2365C72.7334 12.1259 72.9775 11.9611 73.181 11.7524C73.6094 11.3231 73.8281 10.7678 73.8281 10.1C73.8281 9.4358 73.6094 8.8805 73.1801 8.4512C72.7589 8.0219 72.2315 7.8077 71.6132 7.8077C70.9868 7.8077 70.4702 8.0183 70.0346 8.4512C69.6089 8.8805 69.3911 9.4358 69.3911 10.1C69.3911 10.7678 69.6089 11.324 70.0346 11.7524ZM80.4791 13.1474H79.5512L79.5269 13.1096L76.5947 8.4584L76.6226 9.3692V13.1483H75.6947V7.0553H76.7567L79.5755 11.5166L79.5485 10.613V7.0553H80.4791V13.1474ZM68.3327 21.737C65.9882 21.737 64.0685 23.5055 64.0685 25.9445C64.0685 28.3673 65.9882 30.1565 68.3327 30.1565C70.688 30.1565 72.6077 28.3673 72.6077 25.9445C72.6077 23.5055 70.688 21.737 68.3327 21.737ZM68.3327 28.4969C67.0457 28.4969 65.9387 27.443 65.9387 25.9445C65.9387 24.4298 67.0457 23.393 68.3327 23.393C69.6233 23.393 70.7375 24.4298 70.7375 25.9445C70.7375 27.443 69.6233 28.4969 68.3327 28.4969ZM59.024 21.737C56.6687 21.737 54.7562 23.5055 54.7562 25.9445C54.7562 28.3673 56.6687 30.1565 59.024 30.1565C61.3766 30.1565 63.2927 28.3673 63.2927 25.9445C63.2927 23.5055 61.3757 21.737 59.024 21.737ZM59.024 28.4969C57.7343 28.4969 56.6228 27.443 56.6228 25.9445C56.6228 24.4298 57.7343 23.393 59.024 23.393C60.311 23.393 61.4216 24.4298 61.4216 25.9445C61.4216 27.443 60.311 28.4969 59.024 28.4969ZM47.9432 23.0267V24.8168H52.2605C52.1345 25.8149 51.7961 26.5493 51.2795 27.0632C50.6495 27.6815 49.6685 28.3673 47.9432 28.3673C45.2882 28.3673 43.2074 26.2469 43.2074 23.618C43.2074 20.9882 45.2891 18.8642 47.9432 18.8642C49.3814 18.8642 50.4254 19.4195 51.1949 20.1404L52.4711 18.8786C51.3911 17.8589 49.9574 17.0786 47.9432 17.0786C44.3009 17.0786 41.2427 20.0108 41.2427 23.618C41.2427 27.2207 44.3045 30.1565 47.9432 30.1565C49.9115 30.1565 51.392 29.5175 52.5557 28.3178C53.7473 27.1406 54.1163 25.481 54.1163 24.1445C54.1163 23.7269 54.0812 23.3471 54.0218 23.0267H47.9432ZM93.2528 24.4127C92.9009 23.4695 91.8182 21.737 89.6105 21.737C87.4199 21.737 85.5992 23.4416 85.5992 25.9445C85.5992 28.3043 87.4028 30.1565 89.8175 30.1565C91.7723 30.1565 92.9009 28.9757 93.3617 28.2899L91.9127 27.3332C91.4276 28.0334 90.7697 28.4969 89.8175 28.4969C88.8725 28.4969 88.1939 28.0685 87.7574 27.2207L93.4454 24.8897C93.449 24.8897 93.2528 24.4127 93.2528 24.4127ZM87.4514 25.8149C87.4028 24.1904 88.724 23.3606 89.6744 23.3606C90.4151 23.3606 91.0442 23.7269 91.2557 24.2543L87.4514 25.8149ZM82.829 29.9H84.6992V17.525H82.829V29.9ZM79.7663 22.6721H79.7033C79.2848 22.1834 78.4829 21.7361 77.4677 21.7361C75.3365 21.7361 73.3889 23.5856 73.3889 25.9589C73.3889 28.3214 75.3365 30.1565 77.4677 30.1565C78.4829 30.1565 79.2857 29.7065 79.7033 29.2007H79.7663V29.8019C79.7663 31.412 78.8978 32.2769 77.4956 32.2769C76.3526 32.2769 75.6461 31.4606 75.3509 30.7757L73.7264 31.4471C74.1944 32.5613 75.4355 33.9356 77.4956 33.9356C79.6889 33.9356 81.5384 32.6594 81.5384 29.5526V21.9926H79.7663V22.6721ZM77.6252 28.4969C76.3382 28.4969 75.2591 27.4286 75.2591 25.9589C75.2591 24.4757 76.3391 23.393 77.6261 23.393C78.8978 23.393 79.8968 24.4757 79.8968 25.9589C79.8968 27.4286 78.8978 28.4969 77.6252 28.4969ZM102.006 17.525H97.5341V29.9H99.4016V25.211H102.006C104.081 25.211 106.109 23.726 106.109 21.368C106.109 19.0082 104.073 17.525 102.006 17.525ZM102.056 23.4911H99.4007V19.2476H102.056C103.448 19.2476 104.243 20.3906 104.243 21.368C104.243 22.3238 103.448 23.4911 102.056 23.4911ZM113.583 21.7118C112.236 21.7118 110.838 22.3031 110.262 23.6072L111.913 24.293C112.272 23.6072 112.926 23.3822 113.619 23.3822C114.585 23.3822 115.566 23.9582 115.581 24.9752V25.1048C115.242 24.9113 114.522 24.6269 113.632 24.6269C111.85 24.6269 110.036 25.5971 110.036 27.4106C110.036 29.0702 111.495 30.1358 113.136 30.1358C114.392 30.1358 115.084 29.5733 115.521 28.9226H115.584V29.8793H117.384V25.1327C117.384 22.9394 115.728 21.7118 113.583 21.7118ZM113.358 28.4933C112.746 28.4933 111.9 28.1918 111.9 27.443C111.9 26.4863 112.957 26.12 113.875 26.12C114.698 26.12 115.081 26.3 115.58 26.5358C115.436 27.6815 114.437 28.4933 113.358 28.4933ZM123.947 21.9827L121.803 27.3476H121.74L119.521 21.9836H117.51L120.84 29.4779L118.941 33.6512H120.889L126.018 21.9827H123.948H123.947ZM107.134 29.9H109.005V17.525H107.134V29.9Z" fill="white"/>
<path d="M10.6346 7.66371C10.343 7.96971 10.1702 8.44041 10.1702 9.05601V30.9476C10.1702 31.5632 10.3394 32.0339 10.6346 32.3399L10.7084 32.4065L23.1014 20.144V19.856L10.7075 7.59351L10.6346 7.66371Z" fill="url(#paint0_linear_0_8591)"/>
<path d="M27.2277 24.2363L23.1003 20.144V19.856L27.2313 15.7673L27.3231 15.8195L32.2164 18.5762C33.6123 19.3601 33.6123 20.6435 32.2164 21.431L27.3231 24.1832C27.3231 24.1805 27.2277 24.2363 27.2277 24.2363Z" fill="url(#paint1_linear_0_8591)"/>
<path d="M27.3232 24.1805L23.1004 20L10.6345 32.339C11.098 32.8214 11.854 32.8808 12.7153 32.3993L27.3232 24.1805Z" fill="url(#paint2_linear_0_8591)"/>
<path d="M27.3232 15.8195L12.7162 7.60069C11.854 7.12189 11.098 7.18219 10.6345 7.66369L23.1004 20L27.3232 15.8195Z" fill="url(#paint3_linear_0_8591)"/>
</g>
<defs>
<linearGradient id="paint0_linear_0_8591" x1="22.0068" y1="31.1742" x2="5.38658" y2="14.3865" gradientUnits="userSpaceOnUse">
<stop stop-color="#00A0FF"/>
<stop offset="0.007" stop-color="#00A1FF"/>
<stop offset="0.26" stop-color="#00BEFF"/>
<stop offset="0.512" stop-color="#00D2FF"/>
<stop offset="0.76" stop-color="#00DFFF"/>
<stop offset="1" stop-color="#00E3FF"/>
</linearGradient>
<linearGradient id="paint1_linear_0_8591" x1="34.0467" y1="19.9915" x2="9.84096" y2="19.9915" gradientUnits="userSpaceOnUse">
<stop stop-color="#FFE000"/>
<stop offset="0.409" stop-color="#FFBD00"/>
<stop offset="0.775" stop-color="#FFA500"/>
<stop offset="1" stop-color="#FF9C00"/>
</linearGradient>
<linearGradient id="paint2_linear_0_8591" x1="16.6885" y1="25.9817" x2="-5.84982" y2="3.21626" gradientUnits="userSpaceOnUse">
<stop stop-color="#FF3A44"/>
<stop offset="1" stop-color="#C31162"/>
</linearGradient>
<linearGradient id="paint3_linear_0_8591" x1="-0.845372" y1="31.3625" x2="9.21902" y2="21.1968" gradientUnits="userSpaceOnUse">
<stop stop-color="#32A071"/>
<stop offset="0.069" stop-color="#2DA771"/>
<stop offset="0.476" stop-color="#15CF74"/>
<stop offset="0.801" stop-color="#06E775"/>
<stop offset="1" stop-color="#00F076"/>
</linearGradient>
<clipPath id="clip0_0_8591">
<rect width="135" height="40" fill="white" transform="translate(0.199951)"/>
</clipPath>
</defs>
</svg>
