<svg width="121" height="40" viewBox="0 0 121 40" fill="none" xmlns="http://www.w3.org/2000/svg">
<g clip-path="url(#clip0_0_8583)">
<path d="M110.503 0H9.9029C9.5359 0 9.1729 0 8.8079 0.002C8.5019 0.004 8.1979 0.01 7.8889 0.015C7.21742 0.0223323 6.54748 0.0808351 5.8849 0.19C5.22362 0.302207 4.58307 0.513588 3.9849 0.817C3.38661 1.12335 2.83999 1.52151 2.3649 1.997C1.88815 2.47032 1.49073 3.01732 1.1879 3.617C0.883975 4.21585 0.673216 4.85757 0.562896 5.52C0.451624 6.18171 0.391779 6.85105 0.383896 7.522C0.373896 7.829 0.373896 8.137 0.368896 8.443V31.56C0.373896 31.87 0.374896 32.17 0.383896 32.481C0.392105 33.152 0.452285 33.8213 0.563896 34.483C0.673504 35.1461 0.88394 35.7885 1.1879 36.388C1.49102 36.9854 1.88883 37.5297 2.3659 38C2.83865 38.4771 3.38493 38.8751 3.9839 39.179C4.58242 39.4831 5.22325 39.6954 5.8849 39.809C6.54754 39.9179 7.21742 39.9771 7.8889 39.986C8.1989 39.993 8.5019 39.997 8.8079 39.997C9.1739 39.999 9.5359 39.999 9.9029 39.999H110.503C110.863 39.999 111.227 39.999 111.587 39.997C111.891 39.997 112.204 39.993 112.509 39.987C113.179 39.9782 113.848 39.9187 114.509 39.809C115.173 39.6946 115.816 39.4823 116.417 39.179C117.015 38.875 117.561 38.4769 118.034 38C118.51 37.5273 118.909 36.9827 119.216 36.386C119.518 35.7862 119.727 35.1438 119.835 34.481C119.946 33.8192 120.008 33.15 120.02 32.479C120.024 32.169 120.024 31.869 120.024 31.558C120.032 31.194 120.032 30.833 120.032 30.464V9.536C120.032 9.17 120.032 8.806 120.024 8.444C120.024 8.138 120.024 7.83 120.02 7.524C120.008 6.85266 119.946 6.18314 119.835 5.521C119.726 4.8589 119.517 4.21723 119.215 3.618C118.598 2.41511 117.619 1.43588 116.417 0.818C115.816 0.515273 115.173 0.303946 114.509 0.191C113.848 0.0810377 113.179 0.0221968 112.509 0.015C112.204 0.01 111.891 0.004 111.587 0.002C111.227 0 110.862 0 110.503 0Z" fill="#A6A6A6"/>
<path d="M8.81297 39.125C8.50797 39.125 8.21097 39.121 7.90897 39.115C7.28244 39.1066 6.65739 39.0518 6.03897 38.951C5.46281 38.8516 4.90467 38.6669 4.38297 38.403C3.86585 38.1414 3.39417 37.7984 2.98597 37.387C2.57203 36.9801 2.22748 36.5082 1.96597 35.99C1.70103 35.4687 1.51757 34.9099 1.42197 34.333C1.31926 33.7131 1.26377 33.0863 1.25597 32.458C1.24897 32.248 1.24097 31.545 1.24097 31.545V8.445C1.24097 8.445 1.24997 7.753 1.25597 7.55C1.26342 6.92272 1.31858 6.29691 1.42097 5.678C1.51658 5.09952 1.70003 4.53905 1.96497 4.016C2.22568 3.4983 2.56844 3.0262 2.97997 2.618C3.39092 2.20578 3.86401 1.86058 4.38197 1.595C4.90261 1.33189 5.45983 1.14851 6.03497 1.051C6.65533 0.949562 7.28242 0.894742 7.91097 0.887L8.81297 0.875H111.582L112.495 0.888C113.117 0.895224 113.739 0.949378 114.353 1.05C114.934 1.14872 115.497 1.33341 116.024 1.598C117.062 2.13288 117.906 2.97908 118.439 4.018C118.699 4.53755 118.88 5.0935 118.974 5.667C119.078 6.29093 119.136 6.9216 119.148 7.554C119.151 7.837 119.151 8.142 119.151 8.444C119.159 8.819 119.159 9.176 119.159 9.536V30.465C119.159 30.828 119.159 31.183 119.151 31.54C119.151 31.865 119.151 32.163 119.147 32.47C119.136 33.091 119.079 33.7103 118.977 34.323C118.884 34.9041 118.702 35.4673 118.437 35.993C118.173 36.5056 117.83 36.9733 117.421 37.379C117.012 37.7927 116.54 38.1377 116.021 38.401C115.496 38.6671 114.933 38.8525 114.353 38.951C113.735 39.0519 113.11 39.1064 112.484 39.114C112.191 39.121 111.884 39.125 111.587 39.125L110.503 39.127L8.81297 39.125Z" fill="black"/>
<path d="M25.1369 20.3C25.1478 19.4656 25.3695 18.6475 25.7814 17.9217C26.1933 17.196 26.7821 16.5862 27.4929 16.149C27.0413 15.504 26.4455 14.9731 25.7529 14.5985C25.0603 14.2239 24.2899 14.0159 23.5029 13.991C21.8229 13.815 20.1949 14.996 19.3389 14.996C18.4669 14.996 17.1489 14.008 15.7309 14.038C14.8132 14.0676 13.9188 14.3345 13.1349 14.8126C12.351 15.2906 11.7043 15.9637 11.2579 16.766C9.32391 20.114 10.7669 25.035 12.6189 27.742C13.5459 29.067 14.6289 30.547 16.0469 30.495C17.4339 30.437 17.9519 29.61 19.6269 29.61C21.2849 29.61 21.7709 30.495 23.2169 30.462C24.7059 30.437 25.6429 29.13 26.5369 27.792C27.2034 26.8479 27.7164 25.8043 28.0569 24.7C27.1919 24.3343 26.4538 23.7221 25.9345 22.9396C25.4152 22.1571 25.1378 21.2391 25.1369 20.3ZM22.4049 12.21C23.2165 11.236 23.6165 9.9841 23.5199 8.72C22.2799 8.85018 21.1344 9.4429 20.3119 10.38C19.9099 10.8375 19.6019 11.3697 19.4056 11.9462C19.2093 12.5227 19.1285 13.1323 19.1679 13.74C19.788 13.7464 20.4015 13.612 20.9622 13.347C21.5229 13.082 22.0162 12.6932 22.4049 12.21Z" fill="white"/>
<path d="M42.6699 27.14H37.9379L36.8009 30.496H34.7959L39.2799 18.078H41.3629L45.8459 30.496H43.8069L42.6699 27.14ZM38.4269 25.59H42.1789L40.3289 20.144H40.2779L38.4269 25.59ZM55.5269 25.97C55.5269 28.783 54.0219 30.59 51.7489 30.59C51.1735 30.62 50.6012 30.4875 50.0976 30.2075C49.5939 29.9276 49.1792 29.5115 48.9009 29.007H48.8579V33.491H46.9979V21.442H48.7979V22.948H48.8309C49.122 22.4456 49.5438 22.0316 50.0514 21.7498C50.5591 21.4681 51.1336 21.3292 51.7139 21.348C54.0119 21.348 55.5269 23.164 55.5269 25.97ZM53.6169 25.97C53.6169 24.137 52.6699 22.932 51.2249 22.932C49.8049 22.932 48.8499 24.162 48.8499 25.97C48.8499 27.794 49.8049 29.016 51.2249 29.016C52.6699 29.016 53.6169 27.819 53.6169 25.97ZM65.4929 25.97C65.4929 28.783 63.9869 30.59 61.7139 30.59C61.1385 30.62 60.5662 30.4875 60.0626 30.2075C59.5589 29.9276 59.1442 29.5115 58.8659 29.007H58.8229V33.491H56.9639V21.442H58.7629V22.948H58.7969C59.088 22.4456 59.5098 22.0316 60.0174 21.7498C60.5251 21.4681 61.0996 21.3292 61.6799 21.348C63.9779 21.348 65.4929 23.164 65.4929 25.97ZM63.5829 25.97C63.5829 24.137 62.6349 22.932 61.1899 22.932C59.7699 22.932 58.8149 24.162 58.8149 25.97C58.8149 27.794 59.7699 29.016 61.1899 29.016C62.6349 29.016 63.5829 27.819 63.5829 25.97ZM72.0779 27.036C72.2159 28.268 73.4119 29.076 75.0479 29.076C76.6139 29.076 77.7409 28.268 77.7409 27.157C77.7409 26.193 77.0609 25.617 75.4509 25.221L73.8419 24.833C71.5619 24.283 70.5029 23.216 70.5029 21.485C70.5029 19.343 72.3699 17.871 75.0219 17.871C77.6459 17.871 79.4449 19.343 79.5049 21.485H77.6289C77.5169 20.246 76.4929 19.498 74.9949 19.498C73.4969 19.498 72.4739 20.255 72.4739 21.356C72.4739 22.234 73.1279 22.751 74.7289 23.146L76.0969 23.482C78.6449 24.085 79.7029 25.108 79.7029 26.925C79.7029 29.248 77.8529 30.703 74.9099 30.703C72.1559 30.703 70.2959 29.283 70.1759 27.036H72.0779ZM83.7139 19.3V21.442H85.4359V22.914H83.7139V27.905C83.7139 28.681 84.0589 29.042 84.8159 29.042C85.0202 29.0384 85.2241 29.0241 85.4269 28.999V30.462C85.0867 30.5256 84.7409 30.5544 84.3949 30.548C82.5619 30.548 81.8469 29.859 81.8469 28.103V22.914H80.5309V21.442H81.8469V19.3H83.7139ZM86.4329 25.97C86.4329 23.121 88.1109 21.331 90.7269 21.331C93.3519 21.331 95.0219 23.121 95.0219 25.97C95.0219 28.826 93.3609 30.608 90.7269 30.608C88.0939 30.608 86.4329 28.826 86.4329 25.97ZM93.1279 25.97C93.1279 24.016 92.2329 22.862 90.7269 22.862C89.2209 22.862 88.3269 24.024 88.3269 25.97C88.3269 27.932 89.2209 29.076 90.7269 29.076C92.2329 29.076 93.1279 27.932 93.1279 25.97ZM96.5539 21.442H98.3269V22.983H98.3699C98.49 22.502 98.772 22.077 99.1684 21.7793C99.5648 21.4816 100.052 21.3293 100.547 21.348C100.761 21.3471 100.975 21.3703 101.184 21.417V23.155C100.914 23.0725 100.631 23.0347 100.349 23.043C100.079 23.032 99.8097 23.0796 99.5598 23.1825C99.31 23.2854 99.0853 23.4411 98.9013 23.639C98.7173 23.8369 98.5783 24.0722 98.4938 24.3289C98.4093 24.5856 98.3814 24.8575 98.4119 25.126V30.496H96.5539V21.442ZM109.752 27.837C109.502 29.48 107.902 30.608 105.854 30.608C103.22 30.608 101.585 28.844 101.585 26.013C101.585 23.173 103.229 21.331 105.775 21.331C108.281 21.331 109.855 23.051 109.855 25.797V26.434H103.461V26.546C103.431 26.8792 103.473 27.2149 103.583 27.5307C103.694 27.8465 103.87 28.1352 104.1 28.3778C104.331 28.6203 104.61 28.811 104.92 28.9372C105.23 29.0635 105.563 29.1224 105.897 29.11C106.336 29.1511 106.776 29.0493 107.153 28.82C107.529 28.5906 107.822 28.2459 107.987 27.837H109.752ZM103.47 25.135H107.996C108.013 24.8354 107.967 24.5357 107.863 24.2545C107.758 23.9733 107.596 23.7167 107.388 23.5009C107.18 23.2852 106.929 23.1148 106.651 23.0005C106.374 22.8863 106.076 22.8306 105.776 22.837C105.473 22.8352 105.173 22.8933 104.893 23.008C104.613 23.1227 104.358 23.2918 104.144 23.5055C103.93 23.7191 103.76 23.9731 103.644 24.2528C103.528 24.5325 103.469 24.8323 103.47 25.135Z" fill="white"/>
<path d="M38.1941 8.73101C38.5837 8.70306 38.9747 8.76192 39.3388 8.90336C39.703 9.0448 40.0312 9.26528 40.2998 9.54892C40.5684 9.83256 40.7708 10.1723 40.8922 10.5436C41.0136 10.9148 41.0512 11.3085 41.0021 11.696C41.0021 13.602 39.9721 14.698 38.1941 14.698H36.0391V8.73001L38.1941 8.73101ZM36.9661 13.854H38.0911C38.3694 13.8705 38.6479 13.8248 38.9063 13.7201C39.1648 13.6154 39.3966 13.4544 39.585 13.2489C39.7734 13.0434 39.9136 12.7984 39.9955 12.5318C40.0773 12.2653 40.0987 11.9839 40.0581 11.708C40.0958 11.4332 40.0723 11.1535 39.9892 10.8889C39.9062 10.6242 39.7656 10.3813 39.5776 10.1773C39.3896 9.97337 39.1589 9.81353 38.9019 9.70923C38.6449 9.60493 38.368 9.55875 38.0911 9.57401H36.9661V13.854ZM42.0491 12.444C42.0211 12.1483 42.0551 11.8499 42.1491 11.5681C42.2431 11.2863 42.3949 11.0273 42.5948 10.8075C42.7947 10.5878 43.0383 10.4122 43.31 10.2921C43.5817 10.172 43.8755 10.1099 44.1726 10.1099C44.4696 10.1099 44.7634 10.172 45.0351 10.2921C45.3068 10.4122 45.5504 10.5878 45.7503 10.8075C45.9502 11.0273 46.102 11.2863 46.196 11.5681C46.29 11.8499 46.3241 12.1483 46.2961 12.444C46.3256 12.7406 46.2927 13.0401 46.1994 13.3232C46.1061 13.6063 45.9546 13.8667 45.7545 14.0877C45.5545 14.3087 45.3103 14.4853 45.0379 14.6061C44.7654 14.727 44.4706 14.7894 44.1726 14.7894C43.8745 14.7894 43.5797 14.727 43.3073 14.6061C43.0348 14.4853 42.7907 14.3087 42.5906 14.0877C42.3906 13.8667 42.239 13.6063 42.1457 13.3232C42.0525 13.0401 42.0195 12.7406 42.0491 12.444ZM45.3821 12.444C45.3821 11.468 44.9431 10.897 44.1741 10.897C43.4011 10.897 42.9671 11.468 42.9671 12.444C42.9671 13.428 43.4011 13.994 44.1741 13.994C44.9441 13.994 45.3821 13.424 45.3821 12.444ZM51.9421 14.698H51.0191L50.0891 11.381H50.0191L49.0921 14.698H48.1791L46.9371 10.195H47.8391L48.6451 13.631H48.7121L49.6381 10.195H50.4901L51.4161 13.631H51.4861L52.2891 10.195H53.1781L51.9421 14.698ZM54.2221 10.195H55.0771V10.91H55.1431C55.2558 10.6531 55.4458 10.4377 55.6867 10.294C55.9277 10.1502 56.2074 10.0852 56.4871 10.108C56.7062 10.0916 56.9262 10.1246 57.1308 10.2047C57.3355 10.2848 57.5195 10.4099 57.6692 10.5708C57.8189 10.7316 57.9305 10.9241 57.9957 11.134C58.061 11.3438 58.0782 11.5656 58.0461 11.783V14.698H57.1571V12.006C57.1571 11.282 56.8431 10.922 56.1851 10.922C56.0363 10.9151 55.8879 10.9405 55.7499 10.9963C55.6118 11.0522 55.4875 11.1372 55.3854 11.2455C55.2833 11.3539 55.2059 11.4831 55.1583 11.6242C55.1108 11.7653 55.0943 11.915 55.1101 12.063V14.698H54.2221V10.195ZM59.4621 8.43701H60.3501V14.697H59.4621V8.43701ZM61.5861 12.444C61.5581 12.1483 61.5921 11.8499 61.6861 11.5681C61.7801 11.2863 61.9319 11.0273 62.1318 10.8075C62.3317 10.5878 62.5753 10.4122 62.847 10.2921C63.1187 10.172 63.4125 10.1099 63.7096 10.1099C64.0066 10.1099 64.3004 10.172 64.5721 10.2921C64.8438 10.4122 65.0874 10.5878 65.2873 10.8075C65.4872 11.0273 65.639 11.2863 65.733 11.5681C65.827 11.8499 65.8611 12.1483 65.8331 12.444C65.8626 12.7406 65.8297 13.0401 65.7364 13.3232C65.6431 13.6063 65.4916 13.8667 65.2915 14.0877C65.0915 14.3087 64.8473 14.4853 64.5749 14.6061C64.3024 14.727 64.0076 14.7894 63.7096 14.7894C63.4115 14.7894 63.1167 14.727 62.8443 14.6061C62.5718 14.4853 62.3277 14.3087 62.1276 14.0877C61.9276 13.8667 61.776 13.6063 61.6827 13.3232C61.5895 13.0401 61.5565 12.7406 61.5861 12.444ZM64.9191 12.444C64.9191 11.468 64.4801 10.897 63.7111 10.897C62.9381 10.897 62.5041 11.468 62.5041 12.444C62.5041 13.428 62.9381 13.994 63.7111 13.994C64.4811 13.994 64.9191 13.424 64.9191 12.444ZM66.7691 13.424C66.7691 12.614 67.3721 12.146 68.4441 12.08L69.6641 12.01V11.621C69.6641 11.146 69.3491 10.877 68.7421 10.877C68.2451 10.877 67.9021 11.059 67.8031 11.377H66.9431C67.0331 10.604 67.7611 10.107 68.7831 10.107C69.9111 10.107 70.5481 10.67 70.5481 11.621V14.698H69.6931V14.065H69.6231C69.4803 14.2921 69.2798 14.4772 69.0421 14.6014C68.8044 14.7256 68.538 14.7845 68.2701 14.772C68.081 14.7917 67.8899 14.7716 67.7091 14.7129C67.5283 14.6542 67.3618 14.5582 67.2203 14.4312C67.0789 14.3042 66.9657 14.1489 66.8879 13.9754C66.8102 13.802 66.7697 13.6141 66.7691 13.424ZM69.6631 13.04V12.663L68.5631 12.733C67.9431 12.775 67.6631 12.986 67.6631 13.383C67.6631 13.788 68.0141 14.023 68.4971 14.023C68.6386 14.0373 68.7815 14.023 68.9174 13.9809C69.0533 13.9389 69.1794 13.87 69.2881 13.7783C69.3969 13.6866 69.4861 13.574 69.5505 13.4472C69.6149 13.3204 69.6532 13.1819 69.6631 13.04ZM71.7161 12.444C71.7161 11.021 72.4481 10.12 73.5861 10.12C73.8673 10.1072 74.1464 10.1747 74.3908 10.3146C74.6352 10.4545 74.8347 10.661 74.9661 10.91H75.0331V8.43701H75.9211V14.697H75.0701V13.987H75.0001C74.8583 14.2345 74.6515 14.4385 74.4021 14.5769C74.1526 14.7153 73.8701 14.7827 73.5851 14.772C72.4401 14.772 71.7161 13.871 71.7161 12.444ZM72.6341 12.444C72.6341 13.399 73.0841 13.974 73.8371 13.974C74.5871 13.974 75.0491 13.391 75.0491 12.448C75.0491 11.51 74.5811 10.918 73.8371 10.918C73.0891 10.918 72.6341 11.498 72.6341 12.444ZM79.5981 12.444C79.5701 12.1483 79.6041 11.8499 79.6981 11.5681C79.7921 11.2863 79.9439 11.0273 80.1438 10.8075C80.3437 10.5878 80.5873 10.4122 80.859 10.2921C81.1307 10.172 81.4245 10.1099 81.7216 10.1099C82.0186 10.1099 82.3124 10.172 82.5841 10.2921C82.8558 10.4122 83.0994 10.5878 83.2993 10.8075C83.4992 11.0273 83.651 11.2863 83.745 11.5681C83.839 11.8499 83.8731 12.1483 83.8451 12.444C83.8746 12.7406 83.8417 13.0401 83.7484 13.3232C83.6551 13.6063 83.5036 13.8667 83.3035 14.0877C83.1035 14.3087 82.8593 14.4853 82.5869 14.6061C82.3144 14.727 82.0196 14.7894 81.7216 14.7894C81.4235 14.7894 81.1287 14.727 80.8563 14.6061C80.5838 14.4853 80.3397 14.3087 80.1396 14.0877C79.9396 13.8667 79.788 13.6063 79.6947 13.3232C79.6015 13.0401 79.5685 12.7406 79.5981 12.444ZM82.9311 12.444C82.9311 11.468 82.4931 10.897 81.7231 10.897C80.9511 10.897 80.5161 11.468 80.5161 12.444C80.5161 13.428 80.9511 13.994 81.7231 13.994C82.4931 13.994 82.9311 13.424 82.9311 12.444ZM85.0371 10.194H85.8931V10.91H85.9591C86.0718 10.6531 86.2618 10.4377 86.5028 10.294C86.7437 10.1502 87.0234 10.0852 87.3031 10.108C87.5222 10.0916 87.7422 10.1246 87.9468 10.2047C88.1515 10.2848 88.3355 10.4099 88.4852 10.5708C88.6349 10.7316 88.7465 10.9241 88.8117 11.134C88.877 11.3438 88.8942 11.5656 88.8621 11.783V14.698H87.9731V12.006C87.9731 11.282 87.6591 10.922 87.0011 10.922C86.8523 10.9151 86.7039 10.9405 86.5659 10.9963C86.4278 11.0522 86.3035 11.1372 86.2014 11.2455C86.0993 11.3539 86.0219 11.4831 85.9743 11.6242C85.9268 11.7653 85.9103 11.915 85.9261 12.063V14.698H85.0371V10.194ZM93.8831 9.07401V10.215H94.8591V10.964H93.8831V13.279C93.8831 13.751 94.0771 13.958 94.5201 13.958C94.6334 13.9575 94.7466 13.9505 94.8591 13.937V14.677C94.6993 14.7058 94.5374 14.7212 94.3751 14.723C93.3871 14.723 92.9941 14.375 92.9941 13.507V10.964H92.2791V10.215H92.9941V9.07401H93.8831ZM96.0731 8.43701H96.9531V10.918H97.0231C97.1414 10.6587 97.3368 10.4421 97.5827 10.2979C97.8286 10.1537 98.113 10.0888 98.3971 10.112C98.615 10.1002 98.8329 10.1366 99.0351 10.2187C99.2373 10.3008 99.419 10.4265 99.567 10.5869C99.7151 10.7473 99.8259 10.9383 99.8916 11.1465C99.9573 11.3546 99.9762 11.5747 99.9471 11.791V14.698H99.0581V12.01C99.0581 11.29 98.7231 10.926 98.0951 10.926C97.9423 10.9135 97.7886 10.9344 97.6447 10.9875C97.5009 11.0406 97.3704 11.1244 97.2624 11.2332C97.1544 11.342 97.0714 11.4731 97.0194 11.6173C96.9673 11.7615 96.9474 11.9153 96.9611 12.068V14.698H96.0731V8.43701ZM105.129 13.482C105.008 13.8934 104.747 14.2493 104.391 14.4874C104.034 14.7256 103.605 14.831 103.179 14.785C102.882 14.7931 102.587 14.7364 102.314 14.6189C102.042 14.5014 101.798 14.3259 101.6 14.1046C101.402 13.8834 101.254 13.6216 101.168 13.3376C101.081 13.0536 101.057 12.7541 101.098 12.46C101.059 12.1652 101.083 11.8653 101.17 11.5808C101.256 11.2962 101.403 11.0335 101.6 10.8105C101.796 10.5875 102.039 10.4094 102.31 10.2882C102.582 10.167 102.877 10.1055 103.174 10.108C104.427 10.108 105.183 10.964 105.183 12.378V12.688H102.003V12.738C101.989 12.9033 102.01 13.0697 102.064 13.2266C102.118 13.3834 102.205 13.5271 102.318 13.6486C102.431 13.7701 102.568 13.8666 102.72 13.9319C102.873 13.9973 103.037 14.03 103.203 14.028C103.415 14.0532 103.63 14.0147 103.821 13.9175C104.011 13.8203 104.169 13.6687 104.273 13.482H105.129ZM102.003 12.031H104.278C104.289 11.8798 104.269 11.7278 104.218 11.585C104.167 11.4421 104.087 11.3115 103.982 11.2016C103.878 11.0917 103.752 11.0048 103.611 10.9467C103.471 10.8885 103.321 10.8604 103.169 10.864C103.015 10.8621 102.863 10.891 102.72 10.949C102.578 11.007 102.449 11.0929 102.34 11.2017C102.231 11.3104 102.146 11.4399 102.088 11.5823C102.03 11.7247 102.001 11.8773 102.003 12.031Z" fill="white"/>
</g>
<defs>
<clipPath id="clip0_0_8583">
<rect width="120" height="40" fill="white" transform="translate(0.199951)"/>
</clipPath>
</defs>
</svg>
