<svg width="20" height="20" viewBox="0 0 20 20" fill="none" xmlns="http://www.w3.org/2000/svg">
<path d="M15.8837 5.88078L16.4442 6.37906L16.4442 6.37906L15.8837 5.88078ZM9.4394 12.0017C9.16421 12.3113 9.1921 12.7853 9.50169 13.0605C9.81127 13.3357 10.2853 13.3078 10.5605 12.9982L9.4394 12.0017ZM14.1191 4.11625L13.6209 3.55569L13.6209 3.55569L14.1191 4.11625ZM7.00169 9.4394C6.6921 9.71458 6.66421 10.1886 6.9394 10.4982C7.21459 10.8078 7.68865 10.8357 7.99823 10.5605L7.00169 9.4394ZM15.8333 4.16662L15.303 4.69695L15.303 4.69695L15.8333 4.16662ZM4.16663 15.8333L3.49919 15.4912C3.38002 15.7237 3.39043 16.0015 3.52668 16.2244C3.66292 16.4473 3.90536 16.5833 4.16663 16.5833V15.8333ZM15.3231 5.38251L9.4394 12.0017L10.5605 12.9982L16.4442 6.37906L15.3231 5.38251ZM13.6209 3.55569L7.00169 9.4394L7.99823 10.5605L14.6174 4.6768L13.6209 3.55569ZM16.3636 3.63629C15.6149 2.88754 14.4123 2.8522 13.6209 3.55569L14.6174 4.6768C14.8152 4.50097 15.1158 4.5098 15.303 4.69695L16.3636 3.63629ZM16.4442 6.37906C17.1477 5.58764 17.1124 4.38503 16.3636 3.63629L15.303 4.69695C15.4901 4.8841 15.4989 5.18469 15.3231 5.38251L16.4442 6.37906ZM8.61534 14.4487C8.23837 14.8256 7.63478 15.0187 6.79448 15.0857C5.93527 15.1541 5.08352 15.0833 4.16663 15.0833V16.5833C4.9164 16.5833 5.98465 16.6549 6.91354 16.5809C7.86134 16.5055 8.91393 16.2714 9.676 15.5093L8.61534 14.4487ZM4.83406 16.1754C5.3701 15.1295 5.26927 13.9426 5.23637 13.1161C5.19828 12.1596 5.2492 11.6866 5.55121 11.3846L4.49055 10.3239C3.65352 11.1609 3.70444 12.3441 3.73755 13.1757C3.77584 14.1373 3.8174 14.8704 3.49919 15.4912L4.83406 16.1754ZM5.55121 11.3846C6.39734 10.5384 7.7692 10.5384 8.61534 11.3846L9.676 10.3239C8.24407 8.89197 5.92247 8.89197 4.49055 10.3239L5.55121 11.3846ZM8.61534 11.3846C9.46147 12.2307 9.46147 13.6025 8.61534 14.4487L9.676 15.5093C11.1079 14.0774 11.1079 11.7558 9.676 10.3239L8.61534 11.3846Z" fill="white"/>
</svg>
