<svg width="20" height="20" viewBox="0 0 20 20" fill="none" xmlns="http://www.w3.org/2000/svg">
<path d="M16.6667 8.33325V5.99992C16.6667 5.0665 16.6667 4.59979 16.485 4.24327C16.3252 3.92966 16.0703 3.6747 15.7566 3.51491C15.4001 3.33325 14.9334 3.33325 14 3.33325H4.33333C3.39991 3.33325 2.9332 3.33325 2.57668 3.51491C2.26308 3.6747 2.00811 3.92966 1.84832 4.24327C1.66666 4.59979 1.66666 5.0665 1.66666 5.99992V13.9999C1.66666 14.9333 1.66666 15.4 1.84832 15.7566C2.00811 16.0702 2.26308 16.3251 2.57668 16.4849C2.9332 16.6666 3.39991 16.6666 4.33333 16.6666H14C14.9334 16.6666 15.4001 16.6666 15.7566 16.4849C16.0703 16.3251 16.3252 16.0702 16.485 15.7566C16.6667 15.4 16.6667 14.9333 16.6667 13.9999V12.0833M13 11.6666H17C17.4667 11.6666 17.7001 11.6666 17.8783 11.5758C18.0351 11.4959 18.1626 11.3684 18.2425 11.2116C18.3333 11.0333 18.3333 10.8 18.3333 10.3333V9.66659C18.3333 9.19987 18.3333 8.96652 18.2425 8.78826C18.1626 8.63146 18.0351 8.50397 17.8783 8.42408C17.7001 8.33325 17.4667 8.33325 17 8.33325H13C12.5333 8.33325 12.2999 8.33325 12.1217 8.42408C11.9649 8.50397 11.8374 8.63146 11.7575 8.78826C11.6667 8.96652 11.6667 9.19987 11.6667 9.66659V10.3333C11.6667 10.8 11.6667 11.0333 11.7575 11.2116C11.8374 11.3684 11.9649 11.4959 12.1217 11.5758C12.2999 11.6666 12.5333 11.6666 13 11.6666Z" stroke="white" stroke-width="1.5"/>
</svg>
