<svg width="20" height="20" viewBox="0 0 20 20" fill="none" xmlns="http://www.w3.org/2000/svg">
<path d="M16.6666 8.33325V5.99992C16.6666 5.0665 16.6666 4.59979 16.485 4.24327C16.3252 3.92966 16.0702 3.6747 15.7566 3.51491C15.4001 3.33325 14.9334 3.33325 14 3.33325H4.33329C3.39987 3.33325 2.93316 3.33325 2.57664 3.51491C2.26304 3.6747 2.00807 3.92966 1.84828 4.24327C1.66663 4.59979 1.66663 5.0665 1.66663 5.99992V13.9999C1.66663 14.9333 1.66663 15.4 1.84828 15.7566C2.00807 16.0702 2.26304 16.3251 2.57664 16.4849C2.93316 16.6666 3.39987 16.6666 4.33329 16.6666H14C14.9334 16.6666 15.4001 16.6666 15.7566 16.4849C16.0702 16.3251 16.3252 16.0702 16.485 15.7566C16.6666 15.4 16.6666 14.9333 16.6666 13.9999V12.0833M13 11.6666H17C17.4667 11.6666 17.7 11.6666 17.8783 11.5758C18.0351 11.4959 18.1626 11.3684 18.2425 11.2116C18.3333 11.0333 18.3333 10.8 18.3333 10.3333V9.66659C18.3333 9.19987 18.3333 8.96652 18.2425 8.78826C18.1626 8.63146 18.0351 8.50397 17.8783 8.42408C17.7 8.33325 17.4667 8.33325 17 8.33325H13C12.5332 8.33325 12.2999 8.33325 12.1216 8.42408C11.9648 8.50397 11.8373 8.63146 11.7575 8.78826C11.6666 8.96652 11.6666 9.19987 11.6666 9.66659V10.3333C11.6666 10.8 11.6666 11.0333 11.7575 11.2116C11.8373 11.3684 11.9648 11.4959 12.1216 11.5758C12.2999 11.6666 12.5332 11.6666 13 11.6666Z" stroke="white" stroke-width="1.5"/>
</svg>
