<svg width="20" height="20" viewBox="0 0 20 20" fill="none" xmlns="http://www.w3.org/2000/svg">
<path d="M15.8837 5.88078L16.4443 6.37906L16.4443 6.37906L15.8837 5.88078ZM9.43945 12.0017C9.16426 12.3113 9.19215 12.7853 9.50173 13.0605C9.81132 13.3357 10.2854 13.3078 10.5606 12.9982L9.43945 12.0017ZM14.1192 4.11625L13.6209 3.55569L13.6209 3.55569L14.1192 4.11625ZM7.00173 9.4394C6.69215 9.71458 6.66426 10.1886 6.93945 10.4982C7.21464 10.8078 7.68869 10.8357 7.99828 10.5605L7.00173 9.4394ZM15.8333 4.16662L15.303 4.69695L15.303 4.69695L15.8333 4.16662ZM4.16667 15.8333L3.49924 15.4912C3.38006 15.7237 3.39048 16.0015 3.52672 16.2244C3.66297 16.4473 3.90541 16.5833 4.16667 16.5833V15.8333ZM15.3232 5.38251L9.43945 12.0017L10.5606 12.9982L16.4443 6.37906L15.3232 5.38251ZM13.6209 3.55569L7.00173 9.4394L7.99828 10.5605L14.6174 4.6768L13.6209 3.55569ZM16.3637 3.63629C15.6149 2.88754 14.4123 2.8522 13.6209 3.55569L14.6174 4.6768C14.8153 4.50097 15.1159 4.5098 15.303 4.69695L16.3637 3.63629ZM16.4443 6.37906C17.1478 5.58764 17.1124 4.38503 16.3637 3.63629L15.303 4.69695C15.4902 4.8841 15.499 5.18469 15.3232 5.38251L16.4443 6.37906ZM8.61538 14.4487C8.23842 14.8256 7.63482 15.0187 6.79452 15.0857C5.93532 15.1541 5.08357 15.0833 4.16667 15.0833V16.5833C4.91644 16.5833 5.9847 16.6549 6.91359 16.5809C7.86138 16.5055 8.91397 16.2714 9.67604 15.5093L8.61538 14.4487ZM4.83411 16.1754C5.37015 15.1295 5.26932 13.9426 5.23641 13.1161C5.19833 12.1596 5.24925 11.6866 5.55125 11.3846L4.49059 10.3239C3.65357 11.1609 3.70449 12.3441 3.7376 13.1757C3.77589 14.1373 3.81744 14.8704 3.49924 15.4912L4.83411 16.1754ZM5.55125 11.3846C6.39739 10.5384 7.76925 10.5384 8.61538 11.3846L9.67604 10.3239C8.24412 8.89197 5.92251 8.89197 4.49059 10.3239L5.55125 11.3846ZM8.61538 11.3846C9.46152 12.2307 9.46152 13.6025 8.61538 14.4487L9.67604 15.5093C11.108 14.0774 11.108 11.7558 9.67604 10.3239L8.61538 11.3846Z" fill="white"/>
</svg>
