<svg width="20" height="20" viewBox="0 0 20 20" fill="none" xmlns="http://www.w3.org/2000/svg">
<g clip-path="url(#clip0_102_238073)">
<path d="M9.16665 0.833252V8.994C9.16665 9.36521 9.61545 9.55111 9.87794 9.28862L11.3215 7.84509C11.9723 7.19422 13.0276 7.19422 13.6785 7.8451L15.122 9.28862C15.3845 9.55111 15.8333 9.36521 15.8333 8.994V1.66659M7.49998 19.1666H12.5C14.8335 19.1666 16.0003 19.1666 16.8916 18.7124C17.6756 18.313 18.313 17.6756 18.7125 16.8915C19.1666 16.0002 19.1666 14.8335 19.1666 12.4999V7.49992C19.1666 5.16637 19.1666 3.99959 18.7125 3.10829C18.313 2.32428 17.6756 1.68686 16.8916 1.28739C16.0003 0.833252 14.8335 0.833252 12.5 0.833252H7.49998C5.16643 0.833252 3.99965 0.833252 3.10835 1.28739C2.32434 1.68686 1.68692 2.32428 1.28745 3.10829C0.833313 3.99959 0.833313 5.16637 0.833313 7.49992V12.4999C0.833313 14.8335 0.833313 16.0002 1.28745 16.8915C1.68692 17.6756 2.32434 18.313 3.10835 18.7124C3.99965 19.1666 5.16643 19.1666 7.49998 19.1666Z" stroke="white" stroke-width="1.5" stroke-linecap="round"/>
</g>
<defs>
<clipPath id="clip0_102_238073">
<rect width="20" height="20" fill="white"/>
</clipPath>
</defs>
</svg>
