<svg width="25" height="24" viewBox="0 0 25 24" fill="none" xmlns="http://www.w3.org/2000/svg">
<g clip-path="url(#clip0_102_85918)">
<path d="M4.16183 18H20.1618C20.7118 18 21.1618 17.55 21.1618 17C21.1618 16.45 20.7118 16 20.1618 16H4.16183C3.61183 16 3.16183 16.45 3.16183 17C3.16183 17.55 3.61183 18 4.16183 18ZM4.16183 13H20.1618C20.7118 13 21.1618 12.55 21.1618 12C21.1618 11.45 20.7118 11 20.1618 11H4.16183C3.61183 11 3.16183 11.45 3.16183 12C3.16183 12.55 3.61183 13 4.16183 13ZM3.16183 7C3.16183 7.55 3.61183 8 4.16183 8H20.1618C20.7118 8 21.1618 7.55 21.1618 7C21.1618 6.45 20.7118 6 20.1618 6H4.16183C3.61183 6 3.16183 6.45 3.16183 7Z" fill="black"/>
</g>
<defs>
<clipPath id="clip0_102_85918">
<rect width="24" height="24" fill="white" transform="translate(0.161835)"/>
</clipPath>
</defs>
</svg>
