<svg width="25" height="24" viewBox="0 0 25 24" fill="none" xmlns="http://www.w3.org/2000/svg">
<g clip-path="url(#clip0_101_5784)">
<path d="M4.16187 18H20.1619C20.7119 18 21.1619 17.55 21.1619 17C21.1619 16.45 20.7119 16 20.1619 16H4.16187C3.61187 16 3.16187 16.45 3.16187 17C3.16187 17.55 3.61187 18 4.16187 18ZM4.16187 13H20.1619C20.7119 13 21.1619 12.55 21.1619 12C21.1619 11.45 20.7119 11 20.1619 11H4.16187C3.61187 11 3.16187 11.45 3.16187 12C3.16187 12.55 3.61187 13 4.16187 13ZM3.16187 7C3.16187 7.55 3.61187 8 4.16187 8H20.1619C20.7119 8 21.1619 7.55 21.1619 7C21.1619 6.45 20.7119 6 20.1619 6H4.16187C3.61187 6 3.16187 6.45 3.16187 7Z" fill="black"/>
</g>
<defs>
<clipPath id="clip0_101_5784">
<rect width="24" height="24" fill="white" transform="translate(0.161865)"/>
</clipPath>
</defs>
</svg>
