<svg width="24" height="24" viewBox="0 0 24 24" fill="none" xmlns="http://www.w3.org/2000/svg">
<g clip-path="url(#clip0_0_8015)">
<path d="M23.7628 12.2759C23.7628 11.4602 23.6966 10.6401 23.5555 9.83759H12.2368V14.4586H18.7185C18.4495 15.9489 17.5853 17.2673 16.3198 18.1051V21.1034H20.1868C22.4576 19.0134 23.7628 15.9269 23.7628 12.2759Z" fill="#272D37"/>
<path d="M12.2373 24.0002C15.4737 24.0002 18.2031 22.9375 20.1917 21.1033L16.3247 18.1049C15.2488 18.8369 13.8599 19.2513 12.2417 19.2513C9.11105 19.2513 6.45663 17.1393 5.50421 14.2997H1.51376V17.3906C3.55088 21.4428 7.70006 24.0002 12.2373 24.0002V24.0002Z" fill="#272D37"/>
<path d="M5.49972 14.3001C4.99706 12.8098 4.99706 11.196 5.49972 9.7056V6.61465H1.51368C-0.188318 10.0054 -0.188318 14.0003 1.51368 17.3911L5.49972 14.3001V14.3001Z" fill="#272D37"/>
<path d="M12.2373 4.74951C13.9481 4.72305 15.6016 5.36681 16.8406 6.54852L20.2667 3.12246C18.0973 1.08535 15.218 -0.0346186 12.2373 0.000656078C7.70009 0.000656078 3.55091 2.55807 1.51379 6.61466L5.49983 9.7056C6.44784 6.86158 9.10667 4.74951 12.2373 4.74951V4.74951Z" fill="#272D37"/>
</g>
<defs>
<clipPath id="clip0_0_8015">
<rect width="24" height="24" fill="white"/>
</clipPath>
</defs>
</svg>
