<svg width="24" height="24" viewBox="0 0 24 24" fill="none" xmlns="http://www.w3.org/2000/svg">
<g clip-path="url(#clip0_0_8374)">
<path d="M23.7628 12.276C23.7628 11.4603 23.6966 10.6401 23.5555 9.83765H12.2368V14.4586H18.7185C18.4495 15.949 17.5853 17.2674 16.3198 18.1051V21.1035H20.1868C22.4576 19.0135 23.7628 15.9269 23.7628 12.276Z" fill="#272D37"/>
<path d="M12.2372 24.0002C15.4737 24.0002 18.2031 22.9376 20.1917 21.1033L16.3247 18.1049C15.2488 18.8369 13.8599 19.2514 12.2416 19.2514C9.11102 19.2514 6.4566 17.1393 5.50418 14.2997H1.51373V17.3906C3.55085 21.4428 7.70003 24.0002 12.2372 24.0002V24.0002Z" fill="#272D37"/>
<path d="M5.49972 14.3002C4.99706 12.8099 4.99706 11.196 5.49972 9.70569V6.61475H1.51368C-0.188318 10.0055 -0.188318 14.0004 1.51368 17.3912L5.49972 14.3002V14.3002Z" fill="#272D37"/>
<path d="M12.2373 4.74954C13.9481 4.72308 15.6016 5.36684 16.8406 6.54855L20.2667 3.12249C18.0973 1.08538 15.218 -0.0345881 12.2373 0.000686596C7.70009 0.000686596 3.55091 2.5581 1.51379 6.61469L5.49983 9.70563C6.44784 6.86161 9.10667 4.74954 12.2373 4.74954V4.74954Z" fill="#272D37"/>
</g>
<defs>
<clipPath id="clip0_0_8374">
<rect width="24" height="24" fill="white"/>
</clipPath>
</defs>
</svg>
