<svg width="52" height="18" viewBox="0 0 52 18" fill="none" xmlns="http://www.w3.org/2000/svg">
<path d="M7.66536 4.81545V7.03874H0.0166626V4.81545H7.66536ZM1.90502 1.89341H5.04072V13.3434C5.04072 13.7298 5.10425 14.0262 5.23129 14.2327C5.36411 14.4338 5.53736 14.5715 5.75102 14.6456C5.96469 14.7197 6.20146 14.7567 6.46132 14.7567C6.65766 14.7567 6.83668 14.7435 6.99838 14.717C7.16585 14.6906 7.29289 14.6667 7.37951 14.6456L7.90791 16.8927C7.74044 16.9456 7.50078 17.0039 7.18894 17.0674C6.88288 17.1309 6.50752 17.168 6.06286 17.1785C5.27749 17.1997 4.57008 17.0912 3.94063 16.853C3.31118 16.6095 2.81166 16.2336 2.44207 15.7255C2.07826 15.2173 1.89924 14.5821 1.90502 13.8198V1.89341Z" fill="#574EFA"/>
<path d="M15.8131 17.25C14.5137 17.25 13.3876 16.988 12.4348 16.4639C11.482 15.9398 10.7428 15.2067 10.2173 14.2644C9.69756 13.3222 9.43769 12.2211 9.43769 10.9613C9.43769 9.7014 9.69756 8.59769 10.2173 7.65014C10.7428 6.7026 11.482 5.96679 12.4348 5.44273C13.3876 4.91867 14.5137 4.65664 15.8131 4.65664C17.1124 4.65664 18.2385 4.91867 19.1913 5.44273C20.1441 5.96679 20.8804 6.7026 21.4002 7.65014C21.9257 8.59769 22.1884 9.7014 22.1884 10.9613C22.1884 12.2211 21.9257 13.3222 21.4002 14.2644C20.8804 15.2067 20.1441 15.9398 19.1913 16.4639C18.2385 16.988 17.1124 17.25 15.8131 17.25ZM15.8304 14.9473C16.5349 14.9473 17.1239 14.77 17.5975 14.4153C18.071 14.0553 18.4233 13.5736 18.6543 12.9702C18.891 12.3667 19.0094 11.6944 19.0094 10.9533C19.0094 10.2069 18.891 9.532 18.6543 8.92854C18.4233 8.31978 18.071 7.83542 17.5975 7.47546C17.1239 7.1155 16.5349 6.93552 15.8304 6.93552C15.1085 6.93552 14.508 7.1155 14.0286 7.47546C13.5551 7.83542 13.2 8.31978 12.9632 8.92854C12.7322 9.532 12.6167 10.2069 12.6167 10.9533C12.6167 11.6944 12.7322 12.3667 12.9632 12.9702C13.2 13.5736 13.5551 14.0553 14.0286 14.4153C14.508 14.77 15.1085 14.9473 15.8304 14.9473Z" fill="#574EFA"/>
<path d="M31.3582 4.81545V7.03874H23.7095V4.81545H31.3582ZM25.5979 1.89341H28.7336V13.3434C28.7336 13.7298 28.7971 14.0262 28.9242 14.2327C29.057 14.4338 29.2302 14.5715 29.4439 14.6456C29.6576 14.7197 29.8943 14.7567 30.1542 14.7567C30.3505 14.7567 30.5296 14.7435 30.6913 14.717C30.8587 14.6906 30.9858 14.6667 31.0724 14.6456L31.6008 16.8927C31.4333 16.9456 31.1937 17.0039 30.8818 17.0674C30.5758 17.1309 30.2004 17.168 29.7557 17.1785C28.9704 17.1997 28.263 17.0912 27.6335 16.853C27.0041 16.6095 26.5045 16.2336 26.135 15.7255C25.7711 15.2173 25.5921 14.5821 25.5979 13.8198V1.89341Z" fill="#574EFA"/>
<path d="M39.5926 17.25C38.2586 17.25 37.1065 16.9959 36.1363 16.4877C35.172 15.9743 34.4299 15.249 33.9102 14.3121C33.3904 13.3698 33.1306 12.2608 33.1306 10.9851C33.1306 9.73051 33.3904 8.62945 33.9102 7.68191C34.4357 6.72907 35.1691 5.98797 36.1104 5.45861C37.0517 4.92397 38.1575 4.65664 39.428 4.65664C40.248 4.65664 41.0218 4.77839 41.7494 5.0219C42.4828 5.26011 43.1296 5.63066 43.6898 6.13354C44.2557 6.63643 44.7004 7.27695 45.0237 8.0551C45.3471 8.82796 45.5088 9.74904 45.5088 10.8183V11.6997H34.6031V9.76227H42.503C42.4973 9.21174 42.3673 8.72209 42.1133 8.29331C41.8592 7.85924 41.504 7.51781 41.0478 7.26901C40.5974 7.02021 40.0719 6.89581 39.4713 6.89581C38.8303 6.89581 38.2672 7.03874 37.7822 7.32459C37.2971 7.60515 36.9188 7.9757 36.6474 8.43624C36.3818 8.89148 36.2461 9.39172 36.2403 9.93696V11.6282C36.2403 12.3376 36.3818 12.9463 36.6647 13.4545C36.9477 13.9574 37.3433 14.3438 37.8515 14.6138C38.3596 14.8785 38.9544 15.0108 39.6359 15.0108C40.0921 15.0108 40.505 14.9526 40.8746 14.8361C41.2441 14.7144 41.5646 14.5371 41.8361 14.3041C42.1075 14.0712 42.3125 13.7827 42.4511 13.4386L45.3789 13.7404C45.1941 14.4497 44.8418 15.0691 44.3221 15.5984C43.8081 16.1225 43.1498 16.5301 42.3471 16.8212C41.5444 17.1071 40.6262 17.25 39.5926 17.25Z" fill="#574EFA"/>
<path d="M51.1618 0.75V17.0118H48.0261V0.75H51.1618Z" fill="#574EFA"/>
</svg>
