<svg width="52" height="18" viewBox="0 0 52 18" fill="none" xmlns="http://www.w3.org/2000/svg">
<path d="M7.6653 4.81545V7.03874H0.0166016V4.81545H7.6653ZM1.90496 1.89341H5.04066V13.3434C5.04066 13.7298 5.10419 14.0262 5.23123 14.2327C5.36405 14.4338 5.5373 14.5715 5.75096 14.6456C5.96463 14.7197 6.20139 14.7567 6.46126 14.7567C6.6576 14.7567 6.83662 14.7435 6.99832 14.717C7.16578 14.6906 7.29283 14.6667 7.37945 14.6456L7.90784 16.8927C7.74038 16.9456 7.50072 17.0039 7.18888 17.0674C6.88282 17.1309 6.50746 17.168 6.0628 17.1785C5.27743 17.1997 4.57002 17.0912 3.94057 16.853C3.31112 16.6095 2.8116 16.2336 2.44201 15.7255C2.0782 15.2173 1.89918 14.5821 1.90496 13.8198V1.89341Z" fill="#574EFA"/>
<path d="M15.813 17.25C14.5137 17.25 13.3876 16.988 12.4347 16.4639C11.4819 15.9398 10.7427 15.2067 10.2172 14.2644C9.6975 13.3222 9.43763 12.2211 9.43763 10.9613C9.43763 9.7014 9.6975 8.59769 10.2172 7.65014C10.7427 6.7026 11.4819 5.96679 12.4347 5.44273C13.3876 4.91867 14.5137 4.65664 15.813 4.65664C17.1123 4.65664 18.2384 4.91867 19.1912 5.44273C20.1441 5.96679 20.8804 6.7026 21.4001 7.65014C21.9256 8.59769 22.1884 9.7014 22.1884 10.9613C22.1884 12.2211 21.9256 13.3222 21.4001 14.2644C20.8804 15.2067 20.1441 15.9398 19.1912 16.4639C18.2384 16.988 17.1123 17.25 15.813 17.25ZM15.8303 14.9473C16.5348 14.9473 17.1239 14.77 17.5974 14.4153C18.0709 14.0553 18.4232 13.5736 18.6542 12.9702C18.891 12.3667 19.0093 11.6944 19.0093 10.9533C19.0093 10.2069 18.891 9.532 18.6542 8.92854C18.4232 8.31978 18.0709 7.83542 17.5974 7.47546C17.1239 7.1155 16.5348 6.93552 15.8303 6.93552C15.1085 6.93552 14.5079 7.1155 14.0286 7.47546C13.5551 7.83542 13.1999 8.31978 12.9631 8.92854C12.7321 9.532 12.6167 10.2069 12.6167 10.9533C12.6167 11.6944 12.7321 12.3667 12.9631 12.9702C13.1999 13.5736 13.5551 14.0553 14.0286 14.4153C14.5079 14.77 15.1085 14.9473 15.8303 14.9473Z" fill="#574EFA"/>
<path d="M31.3582 4.81545V7.03874H23.7095V4.81545H31.3582ZM25.5978 1.89341H28.7335V13.3434C28.7335 13.7298 28.7971 14.0262 28.9241 14.2327C29.0569 14.4338 29.2302 14.5715 29.4438 14.6456C29.6575 14.7197 29.8943 14.7567 30.1541 14.7567C30.3505 14.7567 30.5295 14.7435 30.6912 14.717C30.8587 14.6906 30.9857 14.6667 31.0723 14.6456L31.6007 16.8927C31.4333 16.9456 31.1936 17.0039 30.8818 17.0674C30.5757 17.1309 30.2003 17.168 29.7557 17.1785C28.9703 17.1997 28.2629 17.0912 27.6334 16.853C27.004 16.6095 26.5045 16.2336 26.1349 15.7255C25.7711 15.2173 25.5921 14.5821 25.5978 13.8198V1.89341Z" fill="#574EFA"/>
<path d="M39.5925 17.25C38.2585 17.25 37.1065 16.9959 36.1363 16.4877C35.1719 15.9743 34.4298 15.249 33.9101 14.3121C33.3904 13.3698 33.1305 12.2608 33.1305 10.9851C33.1305 9.73051 33.3904 8.62945 33.9101 7.68191C34.4356 6.72907 35.169 5.98797 36.1103 5.45861C37.0516 4.92397 38.1575 4.65664 39.4279 4.65664C40.2479 4.65664 41.0218 4.77839 41.7494 5.0219C42.4828 5.26011 43.1296 5.63066 43.6897 6.13354C44.2556 6.63643 44.7003 7.27695 45.0237 8.0551C45.3471 8.82796 45.5088 9.74904 45.5088 10.8183V11.6997H34.6031V9.76227H42.503C42.4972 9.21174 42.3673 8.72209 42.1132 8.29331C41.8591 7.85924 41.5039 7.51781 41.0477 7.26901C40.5973 7.02021 40.0718 6.89581 39.4712 6.89581C38.8302 6.89581 38.2672 7.03874 37.7821 7.32459C37.297 7.60515 36.9188 7.9757 36.6474 8.43624C36.3817 8.89148 36.246 9.39172 36.2402 9.93696V11.6282C36.2402 12.3376 36.3817 12.9463 36.6647 13.4545C36.9476 13.9574 37.3432 14.3438 37.8514 14.6138C38.3596 14.8785 38.9544 15.0108 39.6358 15.0108C40.092 15.0108 40.5049 14.9526 40.8745 14.8361C41.2441 14.7144 41.5646 14.5371 41.836 14.3041C42.1074 14.0712 42.3124 13.7827 42.451 13.4386L45.3788 13.7404C45.194 14.4497 44.8418 15.0691 44.322 15.5984C43.8081 16.1225 43.1498 16.5301 42.3471 16.8212C41.5444 17.1071 40.6262 17.25 39.5925 17.25Z" fill="#574EFA"/>
<path d="M51.1617 0.75V17.0118H48.026V0.75H51.1617Z" fill="#574EFA"/>
</svg>
