<svg width="22" height="28" viewBox="0 0 22 28" fill="none" xmlns="http://www.w3.org/2000/svg">
<path fill-rule="evenodd" clip-rule="evenodd" d="M20.1611 8.73635L18.8006 7.37592V3.18698C18.8006 2.69462 18.3971 2.29105 17.9007 2.29105H16.5285C16.0362 2.29105 15.6326 2.69462 15.6326 3.18698V4.20789L11.7789 0.354194C11.3108 -0.117983 10.544 -0.117983 10.0759 0.354194L1.6937 8.73635C1.22153 9.20449 0.838135 10.1327 0.838135 10.7946V12.2716C5.2653 15.5607 10.7458 17.5059 16.6823 17.5059C18.1594 17.5059 19.6082 17.3849 21.0167 17.1548V10.7946C21.0167 10.1327 20.6333 9.20449 20.1611 8.73635ZM12.763 22.8128V27.5467C12.763 27.9502 13.2514 28.152 13.5379 27.8655L18.5905 22.8128H19.81C20.4718 22.8128 21.0167 22.268 21.0167 21.6062V18.5108C19.6082 18.7408 18.1594 18.8619 16.6823 18.8619C10.7458 18.8619 5.2653 16.9167 0.838135 13.6316V21.6062C0.838135 22.268 1.38296 22.8128 2.04481 22.8128H12.763Z" fill="#574EFA"/>
</svg>
