<svg width="33" height="34" viewBox="0 0 33 34" fill="none" xmlns="http://www.w3.org/2000/svg">
<path fill-rule="evenodd" clip-rule="evenodd" d="M4.54904 2.88232C4.54904 1.77775 3.65361 0.882324 2.54904 0.882324C1.44447 0.882324 0.549042 1.77775 0.549042 2.88232V29.2353C0.549042 31.3795 2.28727 33.1176 4.43139 33.1176H30.7843C31.8889 33.1176 32.7843 32.2222 32.7843 31.1176C32.7843 30.013 31.8889 29.1176 30.7843 29.1176H4.54904V2.88232ZM30.3162 11.8259C31.0972 11.0449 31.0973 9.77857 30.3162 8.99752C29.5352 8.21646 28.2688 8.21645 27.4878 8.99749L19.4903 16.9949L16.1986 13.703C15.8235 13.328 15.3148 13.1172 14.7844 13.1172C14.2539 13.1172 13.7452 13.3279 13.3701 13.703L6.78189 20.2912C6.00084 21.0723 6.00084 22.3386 6.78189 23.1197C7.56294 23.9007 8.82927 23.9007 9.61032 23.1197L14.7843 17.9457L18.076 21.2375C18.451 21.6126 18.9598 21.8233 19.4902 21.8233C20.0206 21.8233 20.5293 21.6126 20.9044 21.2375L30.3162 11.8259Z" fill="white"/>
</svg>
