<svg width="58" height="58" viewBox="0 0 58 58" fill="none" xmlns="http://www.w3.org/2000/svg">
<path fill-rule="evenodd" clip-rule="evenodd" d="M16.849 0H41.151C51.707 0 58 6.293 58 16.849V41.151C58 51.707 51.707 58 41.151 58H16.849C6.293 58 0 51.707 0 41.151V16.849C0 6.293 6.293 0 16.849 0ZM40.832 36.627C40.832 31.436 37.816 29.783 35.554 29L31.175 27.463V17.632H32.219C34.568 17.632 36.482 19.691 36.482 22.243C36.482 23.432 37.468 24.418 38.657 24.418C39.875 24.418 40.832 23.432 40.832 22.243C40.832 17.313 36.975 13.282 32.219 13.282H31.175V11.6C31.175 10.411 30.189 9.425 29 9.425C27.811 9.425 26.825 10.411 26.825 11.6V13.282H24.94C20.648 13.282 17.168 16.907 17.168 21.373C17.168 26.564 20.184 28.217 22.446 29L26.825 30.537V40.368H25.781C23.432 40.368 21.518 38.309 21.518 35.757C21.518 34.568 20.532 33.582 19.343 33.582C18.125 33.582 17.168 34.568 17.168 35.757C17.168 40.687 21.025 44.718 25.781 44.718H26.825V46.4C26.825 47.589 27.811 48.575 29 48.575C30.189 48.575 31.175 47.589 31.175 46.4V44.718H33.06C37.352 44.718 40.832 41.093 40.832 36.627ZM27.0227 17.7952V25.7042L24.1127 24.7363C22.6432 24.2386 21.75 23.7684 21.75 21.3626C21.75 19.3991 23.2771 17.7952 25.1499 17.7952H27.0227ZM36.2502 36.6369C36.2502 38.6003 34.7231 40.2042 32.8503 40.2042H30.9774V32.2952L33.8875 33.263C35.357 33.7608 36.2502 34.2309 36.2502 36.6369Z" fill="#574EFA"/>
</svg>
