<svg width="34" height="34" viewBox="0 0 34 34" fill="none" xmlns="http://www.w3.org/2000/svg">
<path fill-rule="evenodd" clip-rule="evenodd" d="M4.88232 2.88232C4.88232 1.77775 3.98689 0.882324 2.88232 0.882324C1.77775 0.882324 0.882324 1.77775 0.882324 2.88232V29.2353C0.882324 31.3795 2.62055 33.1176 4.76468 33.1176H31.1176C32.2222 33.1176 33.1176 32.2222 33.1176 31.1176C33.1176 30.013 32.2222 29.1176 31.1176 29.1176H4.88232V2.88232ZM30.6495 11.8259C31.4305 11.0449 31.4305 9.77857 30.6495 8.99752C29.8685 8.21646 28.6021 8.21645 27.8211 8.99749L19.8235 16.9949L16.5319 13.703C16.1568 13.328 15.6481 13.1172 15.1176 13.1172C14.5872 13.1172 14.0785 13.3279 13.7034 13.703L7.11517 20.2912C6.33412 21.0723 6.33412 22.3386 7.11517 23.1197C7.89622 23.9007 9.16255 23.9007 9.9436 23.1197L15.1176 17.9457L18.4093 21.2375C18.7843 21.6126 19.293 21.8233 19.8235 21.8233C20.3539 21.8233 20.8626 21.6126 21.2377 21.2375L30.6495 11.8259Z" fill="white"/>
</svg>
