<svg width="32" height="32" viewBox="0 0 32 32" fill="none" xmlns="http://www.w3.org/2000/svg">
<path d="M16.3333 14.45C18.3888 14.45 20.36 15.2665 21.8134 16.7199C23.2668 18.1733 24.0833 20.1446 24.0833 22.2V31.5H20.9833V22.2C20.9834 21.0139 20.5302 19.8727 19.7166 19.0097C18.9029 18.1467 17.7902 17.6273 16.6061 17.5577L16.3333 17.55C15.1473 17.5499 14.006 18.0031 13.143 18.8168C12.2801 19.6305 11.7607 20.7432 11.6911 21.9272L11.6833 22.2V31.5H8.58334V22.2C8.58334 20.1446 9.39986 18.1733 10.8533 16.7199C12.3067 15.2665 14.2779 14.45 16.3333 14.45ZM6.25834 19.1C6.69079 19.1 7.11084 19.1511 7.51384 19.2457C7.24883 20.0347 7.09189 20.8559 7.04729 21.6869L7.03334 22.2V22.3333C6.85518 22.2695 6.66986 22.2279 6.48154 22.2093L6.25834 22.2C5.68038 22.2 5.12314 22.4153 4.69529 22.8039C4.26745 23.1925 3.99968 23.7265 3.94419 24.3018L3.93334 24.525V31.5H0.833344V24.525C0.833344 23.0862 1.4049 21.7063 2.42229 20.6889C3.43967 19.6716 4.81954 19.1 6.25834 19.1ZM26.4083 19.1C27.8471 19.1 29.227 19.6716 30.2444 20.6889C31.2618 21.7063 31.8333 23.0862 31.8333 24.525V31.5H28.7333V24.525C28.7333 23.947 28.518 23.3898 28.1294 22.9619C27.7409 22.5341 27.2068 22.2663 26.6315 22.2108L26.4083 22.2C26.1371 22.2 25.8767 22.2465 25.6333 22.3317V22.2C25.6333 21.1677 25.4659 20.1757 25.1544 19.2488C25.5558 19.1511 25.9759 19.1 26.4083 19.1ZM6.25834 9.8C7.28606 9.8 8.27168 10.2083 8.99838 10.935C9.72509 11.6617 10.1333 12.6473 10.1333 13.675C10.1333 14.7027 9.72509 15.6883 8.99838 16.415C8.27168 17.1417 7.28606 17.55 6.25834 17.55C5.23063 17.55 4.24501 17.1417 3.5183 16.415C2.7916 15.6883 2.38334 14.7027 2.38334 13.675C2.38334 12.6473 2.7916 11.6617 3.5183 10.935C4.24501 10.2083 5.23063 9.8 6.25834 9.8ZM26.4083 9.8C27.4361 9.8 28.4217 10.2083 29.1484 10.935C29.8751 11.6617 30.2833 12.6473 30.2833 13.675C30.2833 14.7027 29.8751 15.6883 29.1484 16.415C28.4217 17.1417 27.4361 17.55 26.4083 17.55C25.3806 17.55 24.395 17.1417 23.6683 16.415C22.9416 15.6883 22.5333 14.7027 22.5333 13.675C22.5333 12.6473 22.9416 11.6617 23.6683 10.935C24.395 10.2083 25.3806 9.8 26.4083 9.8ZM6.25834 12.9C6.0528 12.9 5.85568 12.9817 5.71034 13.127C5.565 13.2723 5.48334 13.4695 5.48334 13.675C5.48334 13.8805 5.565 14.0777 5.71034 14.223C5.85568 14.3683 6.0528 14.45 6.25834 14.45C6.46389 14.45 6.66101 14.3683 6.80635 14.223C6.95169 14.0777 7.03334 13.8805 7.03334 13.675C7.03334 13.4695 6.95169 13.2723 6.80635 13.127C6.66101 12.9817 6.46389 12.9 6.25834 12.9ZM26.4083 12.9C26.2028 12.9 26.0057 12.9817 25.8603 13.127C25.715 13.2723 25.6333 13.4695 25.6333 13.675C25.6333 13.8805 25.715 14.0777 25.8603 14.223C26.0057 14.3683 26.2028 14.45 26.4083 14.45C26.6139 14.45 26.811 14.3683 26.9564 14.223C27.1017 14.0777 27.1833 13.8805 27.1833 13.675C27.1833 13.4695 27.1017 13.2723 26.9564 13.127C26.811 12.9817 26.6139 12.9 26.4083 12.9ZM16.3333 0.5C17.9777 0.5 19.5547 1.15321 20.7174 2.31594C21.8801 3.47866 22.5333 5.05566 22.5333 6.7C22.5333 8.34434 21.8801 9.92134 20.7174 11.0841C19.5547 12.2468 17.9777 12.9 16.3333 12.9C14.689 12.9 13.112 12.2468 11.9493 11.0841C10.7866 9.92134 10.1333 8.34434 10.1333 6.7C10.1333 5.05566 10.7866 3.47866 11.9493 2.31594C13.112 1.15321 14.689 0.5 16.3333 0.5ZM16.3333 3.6C15.5112 3.6 14.7227 3.92661 14.1413 4.50797C13.5599 5.08933 13.2333 5.87783 13.2333 6.7C13.2333 7.52217 13.5599 8.31067 14.1413 8.89203C14.7227 9.47339 15.5112 9.8 16.3333 9.8C17.1555 9.8 17.944 9.47339 18.5254 8.89203C19.1067 8.31067 19.4333 7.52217 19.4333 6.7C19.4333 5.87783 19.1067 5.08933 18.5254 4.50797C17.944 3.92661 17.1555 3.6 16.3333 3.6Z" fill="white"/>
</svg>
