<svg width="32" height="32" viewBox="0 0 32 32" fill="none" xmlns="http://www.w3.org/2000/svg">
<path d="M16 14.45C18.0554 14.45 20.0267 15.2665 21.4801 16.7199C22.9335 18.1733 23.75 20.1446 23.75 22.2V31.5H20.65V22.2C20.6501 21.0139 20.1969 19.8727 19.3832 19.0097C18.5695 18.1467 17.4568 17.6273 16.2728 17.5577L16 17.55C14.8139 17.5499 13.6727 18.0031 12.8097 18.8168C11.9467 19.6305 11.4273 20.7432 11.3577 21.9272L11.35 22.2V31.5H8.25V22.2C8.25 20.1446 9.06652 18.1733 10.5199 16.7199C11.9733 15.2665 13.9446 14.45 16 14.45ZM5.925 19.1C6.35745 19.1 6.7775 19.1511 7.1805 19.2457C6.91549 20.0347 6.75854 20.8559 6.71395 21.6869L6.7 22.2V22.3333C6.52183 22.2695 6.33651 22.2279 6.1482 22.2093L5.925 22.2C5.34703 22.2 4.78979 22.4153 4.36195 22.8039C3.93411 23.1925 3.66633 23.7265 3.61085 24.3018L3.6 24.525V31.5H0.5V24.525C0.5 23.0862 1.07156 21.7063 2.08895 20.6889C3.10633 19.6716 4.4862 19.1 5.925 19.1ZM26.075 19.1C27.5138 19.1 28.8937 19.6716 29.9111 20.6889C30.9284 21.7063 31.5 23.0862 31.5 24.525V31.5H28.4V24.525C28.4 23.947 28.1847 23.3898 27.7961 22.9619C27.4075 22.5341 26.8735 22.2663 26.2982 22.2108L26.075 22.2C25.8037 22.2 25.5433 22.2465 25.3 22.3317V22.2C25.3 21.1677 25.1326 20.1757 24.821 19.2488C25.2225 19.1511 25.6425 19.1 26.075 19.1ZM5.925 9.8C6.95271 9.8 7.93834 10.2083 8.66504 10.935C9.39174 11.6617 9.8 12.6473 9.8 13.675C9.8 14.7027 9.39174 15.6883 8.66504 16.415C7.93834 17.1417 6.95271 17.55 5.925 17.55C4.89729 17.55 3.91166 17.1417 3.18496 16.415C2.45826 15.6883 2.05 14.7027 2.05 13.675C2.05 12.6473 2.45826 11.6617 3.18496 10.935C3.91166 10.2083 4.89729 9.8 5.925 9.8ZM26.075 9.8C27.1027 9.8 28.0883 10.2083 28.815 10.935C29.5417 11.6617 29.95 12.6473 29.95 13.675C29.95 14.7027 29.5417 15.6883 28.815 16.415C28.0883 17.1417 27.1027 17.55 26.075 17.55C25.0473 17.55 24.0617 17.1417 23.335 16.415C22.6083 15.6883 22.2 14.7027 22.2 13.675C22.2 12.6473 22.6083 11.6617 23.335 10.935C24.0617 10.2083 25.0473 9.8 26.075 9.8ZM5.925 12.9C5.71946 12.9 5.52233 12.9817 5.37699 13.127C5.23165 13.2723 5.15 13.4695 5.15 13.675C5.15 13.8805 5.23165 14.0777 5.37699 14.223C5.52233 14.3683 5.71946 14.45 5.925 14.45C6.13054 14.45 6.32767 14.3683 6.47301 14.223C6.61835 14.0777 6.7 13.8805 6.7 13.675C6.7 13.4695 6.61835 13.2723 6.47301 13.127C6.32767 12.9817 6.13054 12.9 5.925 12.9ZM26.075 12.9C25.8695 12.9 25.6723 12.9817 25.527 13.127C25.3817 13.2723 25.3 13.4695 25.3 13.675C25.3 13.8805 25.3817 14.0777 25.527 14.223C25.6723 14.3683 25.8695 14.45 26.075 14.45C26.2805 14.45 26.4777 14.3683 26.623 14.223C26.7683 14.0777 26.85 13.8805 26.85 13.675C26.85 13.4695 26.7683 13.2723 26.623 13.127C26.4777 12.9817 26.2805 12.9 26.075 12.9ZM16 0.5C17.6443 0.5 19.2213 1.15321 20.3841 2.31594C21.5468 3.47866 22.2 5.05566 22.2 6.7C22.2 8.34434 21.5468 9.92134 20.3841 11.0841C19.2213 12.2468 17.6443 12.9 16 12.9C14.3557 12.9 12.7787 12.2468 11.6159 11.0841C10.4532 9.92134 9.8 8.34434 9.8 6.7C9.8 5.05566 10.4532 3.47866 11.6159 2.31594C12.7787 1.15321 14.3557 0.5 16 0.5ZM16 3.6C15.1778 3.6 14.3893 3.92661 13.808 4.50797C13.2266 5.08933 12.9 5.87783 12.9 6.7C12.9 7.52217 13.2266 8.31067 13.808 8.89203C14.3893 9.47339 15.1778 9.8 16 9.8C16.8222 9.8 17.6107 9.47339 18.192 8.89203C18.7734 8.31067 19.1 7.52217 19.1 6.7C19.1 5.87783 18.7734 5.08933 18.192 4.50797C17.6107 3.92661 16.8222 3.6 16 3.6Z" fill="white"/>
</svg>
